<?xml version="1.0" encoding="utf-8" standalone="no"?>
<!DOCTYPE svg PUBLIC "-//W3C//DTD SVG 1.1//EN"
  "http://www.w3.org/Graphics/SVG/1.1/DTD/svg11.dtd">
<!-- Created with matplotlib (https://matplotlib.org/) -->
<svg height="345.6pt" version="1.1" viewBox="0 0 460.8 345.6" width="460.8pt" xmlns="http://www.w3.org/2000/svg" xmlns:xlink="http://www.w3.org/1999/xlink">
 <metadata>
  <rdf:RDF xmlns:cc="http://creativecommons.org/ns#" xmlns:dc="http://purl.org/dc/elements/1.1/" xmlns:rdf="http://www.w3.org/1999/02/22-rdf-syntax-ns#">
   <cc:Work>
    <dc:type rdf:resource="http://purl.org/dc/dcmitype/StillImage"/>
    <dc:date>2022-08-21T01:44:34.600044</dc:date>
    <dc:format>image/svg+xml</dc:format>
    <dc:creator>
     <cc:Agent>
      <dc:title>Matplotlib v3.3.4, https://matplotlib.org/</dc:title>
     </cc:Agent>
    </dc:creator>
   </cc:Work>
  </rdf:RDF>
 </metadata>
 <defs>
  <style type="text/css">*{stroke-linecap:butt;stroke-linejoin:round;}</style>
 </defs>
 <g id="figure_1">
  <g id="patch_1">
   <path d="M 0 345.6 
L 460.8 345.6 
L 460.8 0 
L 0 0 
z
" style="fill:#ffffff;"/>
  </g>
  <g id="axes_1">
   <g id="LineCollection_1">
    <path clip-path="url(#p57f02e372c)" d="M 44.931437 329.890909 
L 35.824503 294.203331 
" style="fill:none;stroke:#000000;"/>
    <path clip-path="url(#p57f02e372c)" d="M 44.931437 329.890909 
L 57.433248 292.655184 
" style="fill:none;stroke:#000000;"/>
    <path clip-path="url(#p57f02e372c)" d="M 44.931437 329.890909 
L 135.238082 329.890909 
" style="fill:none;stroke:#000000;"/>
    <path clip-path="url(#p57f02e372c)" d="M 44.931437 329.890909 
L 44.931437 143.600572 
" style="fill:none;stroke:#000000;"/>
    <path clip-path="url(#p57f02e372c)" d="M 35.824503 294.203331 
L 39.327768 260.313547 
" style="fill:none;stroke:#000000;"/>
    <path clip-path="url(#p57f02e372c)" d="M 39.327768 260.313547 
L 26.953534 200.988729 
" style="fill:none;stroke:#000000;"/>
    <path clip-path="url(#p57f02e372c)" d="M 39.327768 260.313547 
L 76.890351 215.478986 
" style="fill:none;stroke:#000000;"/>
    <path clip-path="url(#p57f02e372c)" d="M 135.238082 329.890909 
L 119.224127 295.471035 
" style="fill:none;stroke:#000000;"/>
    <path clip-path="url(#p57f02e372c)" d="M 135.238082 329.890909 
L 225.544728 329.890909 
" style="fill:none;stroke:#000000;"/>
    <path clip-path="url(#p57f02e372c)" d="M 119.224127 295.471035 
L 113.593762 248.063763 
" style="fill:none;stroke:#000000;"/>
    <path clip-path="url(#p57f02e372c)" d="M 119.224127 295.471035 
L 156.655337 259.317177 
" style="fill:none;stroke:#000000;"/>
    <path clip-path="url(#p57f02e372c)" d="M 113.593762 248.063763 
L 104.482388 204.127593 
" style="fill:none;stroke:#000000;"/>
    <path clip-path="url(#p57f02e372c)" d="M 156.655337 259.317177 
L 166.017048 220.612978 
" style="fill:none;stroke:#000000;"/>
    <path clip-path="url(#p57f02e372c)" d="M 225.544728 329.890909 
L 213.165199 295.087062 
" style="fill:none;stroke:#000000;"/>
    <path clip-path="url(#p57f02e372c)" d="M 225.544728 329.890909 
L 236.87941 315.009693 
" style="fill:none;stroke:#000000;"/>
    <path clip-path="url(#p57f02e372c)" d="M 225.544728 329.890909 
L 315.851373 329.890909 
" style="fill:none;stroke:#000000;"/>
    <path clip-path="url(#p57f02e372c)" d="M 213.165199 295.087062 
L 233.814821 256.931107 
" style="fill:none;stroke:#000000;"/>
    <path clip-path="url(#p57f02e372c)" d="M 213.165199 295.087062 
L 251.847375 266.037098 
" style="fill:none;stroke:#000000;"/>
    <path clip-path="url(#p57f02e372c)" d="M 236.87941 315.009693 
L 198.522476 255.536252 
" style="fill:none;stroke:#000000;"/>
    <path clip-path="url(#p57f02e372c)" d="M 315.851373 329.890909 
L 291.792943 315.493268 
" style="fill:none;stroke:#000000;"/>
    <path clip-path="url(#p57f02e372c)" d="M 315.851373 329.890909 
L 320.369312 292.892226 
" style="fill:none;stroke:#000000;"/>
    <path clip-path="url(#p57f02e372c)" d="M 315.851373 329.890909 
L 350.43579 309.388633 
" style="fill:none;stroke:#000000;"/>
    <path clip-path="url(#p57f02e372c)" d="M 315.851373 329.890909 
L 406.158019 329.890909 
" style="fill:none;stroke:#000000;"/>
    <path clip-path="url(#p57f02e372c)" d="M 350.43579 309.388633 
L 281.716297 258.419724 
" style="fill:none;stroke:#000000;"/>
    <path clip-path="url(#p57f02e372c)" d="M 350.43579 309.388633 
L 332.678446 266.318666 
" style="fill:none;stroke:#000000;"/>
    <path clip-path="url(#p57f02e372c)" d="M 406.158019 329.890909 
L 372.300875 294.568833 
" style="fill:none;stroke:#000000;"/>
    <path clip-path="url(#p57f02e372c)" d="M 406.158019 329.890909 
L 439.854545 308.95816 
" style="fill:none;stroke:#000000;"/>
    <path clip-path="url(#p57f02e372c)" d="M 372.300875 294.568833 
L 421.447352 256.924512 
" style="fill:none;stroke:#000000;"/>
    <path clip-path="url(#p57f02e372c)" d="M 439.854545 308.95816 
L 374.01053 255.623808 
" style="fill:none;stroke:#000000;"/>
    <path clip-path="url(#p57f02e372c)" d="M 421.447352 256.924512 
L 416.691395 213.129266 
" style="fill:none;stroke:#000000;"/>
    <path clip-path="url(#p57f02e372c)" d="M 44.931437 143.600572 
L 59.316478 128.572862 
" style="fill:none;stroke:#000000;"/>
    <path clip-path="url(#p57f02e372c)" d="M 44.931437 143.600572 
L 135.238082 143.600572 
" style="fill:none;stroke:#000000;"/>
    <path clip-path="url(#p57f02e372c)" d="M 59.316478 128.572862 
L 22.758151 61.060102 
" style="fill:none;stroke:#000000;"/>
    <path clip-path="url(#p57f02e372c)" d="M 59.316478 128.572862 
L 69.853047 62.019331 
" style="fill:none;stroke:#000000;"/>
    <path clip-path="url(#p57f02e372c)" d="M 22.758151 61.060102 
L 20.945455 15.709091 
" style="fill:none;stroke:#000000;"/>
    <path clip-path="url(#p57f02e372c)" d="M 22.758151 61.060102 
L 64.735959 32.633141 
" style="fill:none;stroke:#000000;"/>
    <path clip-path="url(#p57f02e372c)" d="M 135.238082 143.600572 
L 127.720651 116.332124 
" style="fill:none;stroke:#000000;"/>
    <path clip-path="url(#p57f02e372c)" d="M 135.238082 143.600572 
L 225.544728 143.600572 
" style="fill:none;stroke:#000000;"/>
    <path clip-path="url(#p57f02e372c)" d="M 127.720651 116.332124 
L 147.483554 62.487288 
" style="fill:none;stroke:#000000;"/>
    <path clip-path="url(#p57f02e372c)" d="M 147.483554 62.487288 
L 107.369551 18.996963 
" style="fill:none;stroke:#000000;"/>
    <path clip-path="url(#p57f02e372c)" d="M 147.483554 62.487288 
L 132.508985 30.198008 
" style="fill:none;stroke:#000000;"/>
    <path clip-path="url(#p57f02e372c)" d="M 147.483554 62.487288 
L 172.490529 26.514971 
" style="fill:none;stroke:#000000;"/>
    <path clip-path="url(#p57f02e372c)" d="M 225.544728 143.600572 
L 189.738211 118.029683 
" style="fill:none;stroke:#000000;"/>
    <path clip-path="url(#p57f02e372c)" d="M 225.544728 143.600572 
L 236.574565 111.303614 
" style="fill:none;stroke:#000000;"/>
    <path clip-path="url(#p57f02e372c)" d="M 225.544728 143.600572 
L 315.851373 143.600572 
" style="fill:none;stroke:#000000;"/>
    <path clip-path="url(#p57f02e372c)" d="M 189.738211 118.029683 
L 192.829225 61.124321 
" style="fill:none;stroke:#000000;"/>
    <path clip-path="url(#p57f02e372c)" d="M 189.738211 118.029683 
L 220.795086 62.019852 
" style="fill:none;stroke:#000000;"/>
    <path clip-path="url(#p57f02e372c)" d="M 189.738211 118.029683 
L 252.05925 65.061982 
" style="fill:none;stroke:#000000;"/>
    <path clip-path="url(#p57f02e372c)" d="M 315.851373 143.600572 
L 282.618135 117.355567 
" style="fill:none;stroke:#000000;"/>
    <path clip-path="url(#p57f02e372c)" d="M 315.851373 143.600572 
L 322.822001 121.309308 
" style="fill:none;stroke:#000000;"/>
    <path clip-path="url(#p57f02e372c)" d="M 315.851373 143.600572 
L 353.332276 115.11305 
" style="fill:none;stroke:#000000;"/>
    <path clip-path="url(#p57f02e372c)" d="M 315.851373 143.600572 
L 406.158019 143.600572 
" style="fill:none;stroke:#000000;"/>
    <path clip-path="url(#p57f02e372c)" d="M 322.822001 121.309308 
L 333.823801 70.217898 
" style="fill:none;stroke:#000000;"/>
    <path clip-path="url(#p57f02e372c)" d="M 333.823801 70.217898 
L 292.556675 25.481436 
" style="fill:none;stroke:#000000;"/>
    <path clip-path="url(#p57f02e372c)" d="M 406.158019 143.600572 
L 395.301231 113.402485 
" style="fill:none;stroke:#000000;"/>
    <path clip-path="url(#p57f02e372c)" d="M 406.158019 143.600572 
L 416.97676 112.036863 
" style="fill:none;stroke:#000000;"/>
    <path clip-path="url(#p57f02e372c)" d="M 416.97676 112.036863 
L 417.619274 80.162402 
" style="fill:none;stroke:#000000;"/>
    <path clip-path="url(#p57f02e372c)" d="M 417.619274 80.162402 
L 370.573953 35.873271 
" style="fill:none;stroke:#000000;"/>
    <path clip-path="url(#p57f02e372c)" d="M 417.619274 80.162402 
L 415.955563 30.750285 
" style="fill:none;stroke:#000000;"/>
   </g>
   <g id="text_1">
    <g id="patch_2">
     <path clip-path="url(#p57f02e372c)" d="M 35.203788 307.622705 
L 37.956501 318.409831 
Q 38.327392 319.863254 39.780816 319.492362 
L 44.46962 318.29585 
Q 45.923043 317.924958 45.552151 316.471535 
L 42.799439 305.684409 
Q 42.428547 304.230986 40.975124 304.601877 
L 36.28632 305.79839 
Q 34.832896 306.169281 35.203788 307.622705 
z
" style="fill:#ffffff;stroke:#ffffff;stroke-linejoin:miter;"/>
    </g>
    <g clip-path="url(#p57f02e372c)">
     <!-- 3.96 -->
     <g transform="translate(37.664767 306.9947)rotate(-284.315502)scale(0.05 -0.05)">
      <defs>
       <path d="M 40.578125 39.3125 
Q 47.65625 37.796875 51.625 33 
Q 55.609375 28.21875 55.609375 21.1875 
Q 55.609375 10.40625 48.1875 4.484375 
Q 40.765625 -1.421875 27.09375 -1.421875 
Q 22.515625 -1.421875 17.65625 -0.515625 
Q 12.796875 0.390625 7.625 2.203125 
L 7.625 11.71875 
Q 11.71875 9.328125 16.59375 8.109375 
Q 21.484375 6.890625 26.8125 6.890625 
Q 36.078125 6.890625 40.9375 10.546875 
Q 45.796875 14.203125 45.796875 21.1875 
Q 45.796875 27.640625 41.28125 31.265625 
Q 36.765625 34.90625 28.71875 34.90625 
L 20.21875 34.90625 
L 20.21875 43.015625 
L 29.109375 43.015625 
Q 36.375 43.015625 40.234375 45.921875 
Q 44.09375 48.828125 44.09375 54.296875 
Q 44.09375 59.90625 40.109375 62.90625 
Q 36.140625 65.921875 28.71875 65.921875 
Q 24.65625 65.921875 20.015625 65.03125 
Q 15.375 64.15625 9.8125 62.3125 
L 9.8125 71.09375 
Q 15.4375 72.65625 20.34375 73.4375 
Q 25.25 74.21875 29.59375 74.21875 
Q 40.828125 74.21875 47.359375 69.109375 
Q 53.90625 64.015625 53.90625 55.328125 
Q 53.90625 49.265625 50.4375 45.09375 
Q 46.96875 40.921875 40.578125 39.3125 
z
" id="DejaVuSans-51"/>
       <path d="M 10.6875 12.40625 
L 21 12.40625 
L 21 0 
L 10.6875 0 
z
" id="DejaVuSans-46"/>
       <path d="M 10.984375 1.515625 
L 10.984375 10.5 
Q 14.703125 8.734375 18.5 7.8125 
Q 22.3125 6.890625 25.984375 6.890625 
Q 35.75 6.890625 40.890625 13.453125 
Q 46.046875 20.015625 46.78125 33.40625 
Q 43.953125 29.203125 39.59375 26.953125 
Q 35.25 24.703125 29.984375 24.703125 
Q 19.046875 24.703125 12.671875 31.3125 
Q 6.296875 37.9375 6.296875 49.421875 
Q 6.296875 60.640625 12.9375 67.421875 
Q 19.578125 74.21875 30.609375 74.21875 
Q 43.265625 74.21875 49.921875 64.515625 
Q 56.59375 54.828125 56.59375 36.375 
Q 56.59375 19.140625 48.40625 8.859375 
Q 40.234375 -1.421875 26.421875 -1.421875 
Q 22.703125 -1.421875 18.890625 -0.6875 
Q 15.09375 0.046875 10.984375 1.515625 
z
M 30.609375 32.421875 
Q 37.25 32.421875 41.125 36.953125 
Q 45.015625 41.5 45.015625 49.421875 
Q 45.015625 57.28125 41.125 61.84375 
Q 37.25 66.40625 30.609375 66.40625 
Q 23.96875 66.40625 20.09375 61.84375 
Q 16.21875 57.28125 16.21875 49.421875 
Q 16.21875 41.5 20.09375 36.953125 
Q 23.96875 32.421875 30.609375 32.421875 
z
" id="DejaVuSans-57"/>
       <path d="M 33.015625 40.375 
Q 26.375 40.375 22.484375 35.828125 
Q 18.609375 31.296875 18.609375 23.390625 
Q 18.609375 15.53125 22.484375 10.953125 
Q 26.375 6.390625 33.015625 6.390625 
Q 39.65625 6.390625 43.53125 10.953125 
Q 47.40625 15.53125 47.40625 23.390625 
Q 47.40625 31.296875 43.53125 35.828125 
Q 39.65625 40.375 33.015625 40.375 
z
M 52.59375 71.296875 
L 52.59375 62.3125 
Q 48.875 64.0625 45.09375 64.984375 
Q 41.3125 65.921875 37.59375 65.921875 
Q 27.828125 65.921875 22.671875 59.328125 
Q 17.53125 52.734375 16.796875 39.40625 
Q 19.671875 43.65625 24.015625 45.921875 
Q 28.375 48.1875 33.59375 48.1875 
Q 44.578125 48.1875 50.953125 41.515625 
Q 57.328125 34.859375 57.328125 23.390625 
Q 57.328125 12.15625 50.6875 5.359375 
Q 44.046875 -1.421875 33.015625 -1.421875 
Q 20.359375 -1.421875 13.671875 8.265625 
Q 6.984375 17.96875 6.984375 36.375 
Q 6.984375 53.65625 15.1875 63.9375 
Q 23.390625 74.21875 37.203125 74.21875 
Q 40.921875 74.21875 44.703125 73.484375 
Q 48.484375 72.75 52.59375 71.296875 
z
" id="DejaVuSans-54"/>
      </defs>
      <use xlink:href="#DejaVuSans-51"/>
      <use x="63.623047" xlink:href="#DejaVuSans-46"/>
      <use x="95.410156" xlink:href="#DejaVuSans-57"/>
      <use x="159.033203" xlink:href="#DejaVuSans-54"/>
     </g>
    </g>
   </g>
   <g id="text_2">
    <g id="patch_3">
     <path clip-path="url(#p57f02e372c)" d="M 53.126321 317.797505 
L 56.669751 307.243661 
Q 57.147181 305.821669 55.72519 305.344239 
L 51.137785 303.804028 
Q 49.715794 303.326597 49.238363 304.748589 
L 45.694934 315.302433 
Q 45.217503 316.724424 46.639495 317.201855 
L 51.226899 318.742066 
Q 52.648891 319.219496 53.126321 317.797505 
z
" style="fill:#ffffff;stroke:#ffffff;stroke-linejoin:miter;"/>
    </g>
    <g clip-path="url(#p57f02e372c)">
     <!-- 4.23 -->
     <g transform="translate(50.718563 316.989105)rotate(-71.440638)scale(0.05 -0.05)">
      <defs>
       <path d="M 37.796875 64.3125 
L 12.890625 25.390625 
L 37.796875 25.390625 
z
M 35.203125 72.90625 
L 47.609375 72.90625 
L 47.609375 25.390625 
L 58.015625 25.390625 
L 58.015625 17.1875 
L 47.609375 17.1875 
L 47.609375 0 
L 37.796875 0 
L 37.796875 17.1875 
L 4.890625 17.1875 
L 4.890625 26.703125 
z
" id="DejaVuSans-52"/>
       <path d="M 19.1875 8.296875 
L 53.609375 8.296875 
L 53.609375 0 
L 7.328125 0 
L 7.328125 8.296875 
Q 12.9375 14.109375 22.625 23.890625 
Q 32.328125 33.6875 34.8125 36.53125 
Q 39.546875 41.84375 41.421875 45.53125 
Q 43.3125 49.21875 43.3125 52.78125 
Q 43.3125 58.59375 39.234375 62.25 
Q 35.15625 65.921875 28.609375 65.921875 
Q 23.96875 65.921875 18.8125 64.3125 
Q 13.671875 62.703125 7.8125 59.421875 
L 7.8125 69.390625 
Q 13.765625 71.78125 18.9375 73 
Q 24.125 74.21875 28.421875 74.21875 
Q 39.75 74.21875 46.484375 68.546875 
Q 53.21875 62.890625 53.21875 53.421875 
Q 53.21875 48.921875 51.53125 44.890625 
Q 49.859375 40.875 45.40625 35.40625 
Q 44.1875 33.984375 37.640625 27.21875 
Q 31.109375 20.453125 19.1875 8.296875 
z
" id="DejaVuSans-50"/>
      </defs>
      <use xlink:href="#DejaVuSans-52"/>
      <use x="63.623047" xlink:href="#DejaVuSans-46"/>
      <use x="95.410156" xlink:href="#DejaVuSans-50"/>
      <use x="159.033203" xlink:href="#DejaVuSans-51"/>
     </g>
    </g>
   </g>
   <g id="text_3">
    <g id="patch_4">
     <path clip-path="url(#p57f02e372c)" d="M 84.518353 333.81044 
L 95.651166 333.81044 
Q 97.151166 333.81044 97.151166 332.31044 
L 97.151166 327.471378 
Q 97.151166 325.971378 95.651166 325.971378 
L 84.518353 325.971378 
Q 83.018353 325.971378 83.018353 327.471378 
L 83.018353 332.31044 
Q 83.018353 333.81044 84.518353 333.81044 
z
" style="fill:#ffffff;stroke:#ffffff;stroke-linejoin:miter;"/>
    </g>
    <g clip-path="url(#p57f02e372c)">
     <!-- 10.0 -->
     <g transform="translate(84.518353 331.270597)scale(0.05 -0.05)">
      <defs>
       <path d="M 12.40625 8.296875 
L 28.515625 8.296875 
L 28.515625 63.921875 
L 10.984375 60.40625 
L 10.984375 69.390625 
L 28.421875 72.90625 
L 38.28125 72.90625 
L 38.28125 8.296875 
L 54.390625 8.296875 
L 54.390625 0 
L 12.40625 0 
z
" id="DejaVuSans-49"/>
       <path d="M 31.78125 66.40625 
Q 24.171875 66.40625 20.328125 58.90625 
Q 16.5 51.421875 16.5 36.375 
Q 16.5 21.390625 20.328125 13.890625 
Q 24.171875 6.390625 31.78125 6.390625 
Q 39.453125 6.390625 43.28125 13.890625 
Q 47.125 21.390625 47.125 36.375 
Q 47.125 51.421875 43.28125 58.90625 
Q 39.453125 66.40625 31.78125 66.40625 
z
M 31.78125 74.21875 
Q 44.046875 74.21875 50.515625 64.515625 
Q 56.984375 54.828125 56.984375 36.375 
Q 56.984375 17.96875 50.515625 8.265625 
Q 44.046875 -1.421875 31.78125 -1.421875 
Q 19.53125 -1.421875 13.0625 8.265625 
Q 6.59375 17.96875 6.59375 36.375 
Q 6.59375 54.828125 13.0625 64.515625 
Q 19.53125 74.21875 31.78125 74.21875 
z
" id="DejaVuSans-48"/>
      </defs>
      <use xlink:href="#DejaVuSans-49"/>
      <use x="63.623047" xlink:href="#DejaVuSans-48"/>
      <use x="127.246094" xlink:href="#DejaVuSans-46"/>
      <use x="159.033203" xlink:href="#DejaVuSans-48"/>
     </g>
    </g>
   </g>
   <g id="text_4">
    <g id="patch_5">
     <path clip-path="url(#p57f02e372c)" d="M 48.850968 242.312147 
L 48.850968 231.179334 
Q 48.850968 229.679334 47.350968 229.679334 
L 42.511905 229.679334 
Q 41.011905 229.679334 41.011905 231.179334 
L 41.011905 242.312147 
Q 41.011905 243.812147 42.511905 243.812147 
L 47.350968 243.812147 
Q 48.850968 243.812147 48.850968 242.312147 
z
" style="fill:#ffffff;stroke:#ffffff;stroke-linejoin:miter;"/>
    </g>
    <g clip-path="url(#p57f02e372c)">
     <!-- 20.0 -->
     <g transform="translate(46.311124 242.312147)rotate(-90)scale(0.05 -0.05)">
      <use xlink:href="#DejaVuSans-50"/>
      <use x="63.623047" xlink:href="#DejaVuSans-48"/>
      <use x="127.246094" xlink:href="#DejaVuSans-46"/>
      <use x="159.033203" xlink:href="#DejaVuSans-48"/>
     </g>
    </g>
   </g>
   <g id="text_5">
    <g id="patch_6">
     <path clip-path="url(#p57f02e372c)" d="M 40.902529 283.198364 
L 42.047254 272.12456 
Q 42.20149 270.632511 40.709441 270.478274 
L 35.896028 269.980701 
Q 34.403978 269.826464 34.249742 271.318514 
L 33.105017 282.392317 
Q 32.950781 283.884366 34.44283 284.038603 
L 39.256243 284.536176 
Q 40.748292 284.690413 40.902529 283.198364 
z
" style="fill:#ffffff;stroke:#ffffff;stroke-linejoin:miter;"/>
    </g>
    <g clip-path="url(#p57f02e372c)">
     <!-- 3.66 -->
     <g transform="translate(38.376148 282.937206)rotate(-84.098166)scale(0.05 -0.05)">
      <use xlink:href="#DejaVuSans-51"/>
      <use x="63.623047" xlink:href="#DejaVuSans-46"/>
      <use x="95.410156" xlink:href="#DejaVuSans-54"/>
      <use x="159.033203" xlink:href="#DejaVuSans-54"/>
     </g>
    </g>
   </g>
   <g id="text_6">
    <g id="patch_7">
     <path clip-path="url(#p57f02e372c)" d="M 28.167095 226.002337 
L 30.440303 236.900596 
Q 30.746587 238.368992 32.214984 238.062708 
L 36.952094 237.07462 
Q 38.420491 236.768336 38.114206 235.299939 
L 35.840999 224.40168 
Q 35.534714 222.933283 34.066317 223.239568 
L 29.329208 224.227655 
Q 27.860811 224.53394 28.167095 226.002337 
z
" style="fill:#ffffff;stroke:#ffffff;stroke-linejoin:miter;"/>
    </g>
    <g clip-path="url(#p57f02e372c)">
     <!-- 6.51 -->
     <g transform="translate(30.653428 225.483727)rotate(-281.782077)scale(0.05 -0.05)">
      <defs>
       <path d="M 10.796875 72.90625 
L 49.515625 72.90625 
L 49.515625 64.59375 
L 19.828125 64.59375 
L 19.828125 46.734375 
Q 21.96875 47.46875 24.109375 47.828125 
Q 26.265625 48.1875 28.421875 48.1875 
Q 40.625 48.1875 47.75 41.5 
Q 54.890625 34.8125 54.890625 23.390625 
Q 54.890625 11.625 47.5625 5.09375 
Q 40.234375 -1.421875 26.90625 -1.421875 
Q 22.3125 -1.421875 17.546875 -0.640625 
Q 12.796875 0.140625 7.71875 1.703125 
L 7.71875 11.625 
Q 12.109375 9.234375 16.796875 8.0625 
Q 21.484375 6.890625 26.703125 6.890625 
Q 35.15625 6.890625 40.078125 11.328125 
Q 45.015625 15.765625 45.015625 23.390625 
Q 45.015625 31 40.078125 35.4375 
Q 35.15625 39.890625 26.703125 39.890625 
Q 22.75 39.890625 18.8125 39.015625 
Q 14.890625 38.140625 10.796875 36.28125 
z
" id="DejaVuSans-53"/>
      </defs>
      <use xlink:href="#DejaVuSans-54"/>
      <use x="63.623047" xlink:href="#DejaVuSans-46"/>
      <use x="95.410156" xlink:href="#DejaVuSans-53"/>
      <use x="159.033203" xlink:href="#DejaVuSans-49"/>
     </g>
    </g>
   </g>
   <g id="text_7">
    <g id="patch_8">
     <path clip-path="url(#p57f02e372c)" d="M 57.538738 244.680243 
L 64.688283 236.146573 
Q 65.65159 234.996773 64.50179 234.033466 
L 60.792488 230.925797 
Q 59.642688 229.96249 58.679381 231.11229 
L 51.529836 239.64596 
Q 50.566529 240.79576 51.716329 241.759067 
L 55.425631 244.866736 
Q 56.575431 245.830043 57.538738 244.680243 
z
" style="fill:#ffffff;stroke:#ffffff;stroke-linejoin:miter;"/>
    </g>
    <g clip-path="url(#p57f02e372c)">
     <!-- 6.36 -->
     <g transform="translate(55.591863 243.049143)rotate(-50.043583)scale(0.05 -0.05)">
      <use xlink:href="#DejaVuSans-54"/>
      <use x="63.623047" xlink:href="#DejaVuSans-46"/>
      <use x="95.410156" xlink:href="#DejaVuSans-51"/>
      <use x="159.033203" xlink:href="#DejaVuSans-54"/>
     </g>
    </g>
   </g>
   <g id="text_8">
    <g id="patch_9">
     <path clip-path="url(#p57f02e372c)" d="M 122.000254 310.729623 
L 125.354484 317.939095 
Q 125.987233 319.299105 127.347243 318.666356 
L 131.734694 316.625081 
Q 133.094704 315.992332 132.461955 314.632321 
L 129.107725 307.422849 
Q 128.474976 306.062838 127.114966 306.695588 
L 122.727515 308.736863 
Q 121.367505 309.369612 122.000254 310.729623 
z
" style="fill:#ffffff;stroke:#ffffff;stroke-linejoin:miter;"/>
    </g>
    <g clip-path="url(#p57f02e372c)">
     <!-- 4.1 -->
     <g transform="translate(124.303063 309.658233)rotate(-294.950353)scale(0.05 -0.05)">
      <use xlink:href="#DejaVuSans-52"/>
      <use x="63.623047" xlink:href="#DejaVuSans-46"/>
      <use x="95.410156" xlink:href="#DejaVuSans-49"/>
     </g>
    </g>
   </g>
   <g id="text_9">
    <g id="patch_10">
     <path clip-path="url(#p57f02e372c)" d="M 174.824999 333.81044 
L 185.957811 333.81044 
Q 187.457811 333.81044 187.457811 332.31044 
L 187.457811 327.471378 
Q 187.457811 325.971378 185.957811 325.971378 
L 174.824999 325.971378 
Q 173.324999 325.971378 173.324999 327.471378 
L 173.324999 332.31044 
Q 173.324999 333.81044 174.824999 333.81044 
z
" style="fill:#ffffff;stroke:#ffffff;stroke-linejoin:miter;"/>
    </g>
    <g clip-path="url(#p57f02e372c)">
     <!-- 10.0 -->
     <g transform="translate(174.824999 331.270597)scale(0.05 -0.05)">
      <use xlink:href="#DejaVuSans-49"/>
      <use x="63.623047" xlink:href="#DejaVuSans-48"/>
      <use x="127.246094" xlink:href="#DejaVuSans-46"/>
      <use x="159.033203" xlink:href="#DejaVuSans-48"/>
     </g>
    </g>
   </g>
   <g id="text_10">
    <g id="patch_11">
     <path clip-path="url(#p57f02e372c)" d="M 111.860282 266.702098 
L 113.173252 277.757215 
Q 113.350158 279.246747 114.839689 279.069841 
L 119.644981 278.499137 
Q 121.134512 278.322231 120.957607 276.8327 
L 119.644636 265.777582 
Q 119.467731 264.288051 117.978199 264.464956 
L 113.172908 265.03566 
Q 111.683377 265.212566 111.860282 266.702098 
z
" style="fill:#ffffff;stroke:#ffffff;stroke-linejoin:miter;"/>
    </g>
    <g clip-path="url(#p57f02e372c)">
     <!-- 5.13 -->
     <g transform="translate(114.3824 266.402556)rotate(-276.773055)scale(0.05 -0.05)">
      <use xlink:href="#DejaVuSans-53"/>
      <use x="63.623047" xlink:href="#DejaVuSans-46"/>
      <use x="95.410156" xlink:href="#DejaVuSans-49"/>
      <use x="159.033203" xlink:href="#DejaVuSans-51"/>
     </g>
    </g>
   </g>
   <g id="text_11">
    <g id="patch_12">
     <path clip-path="url(#p57f02e372c)" d="M 136.658972 284.080454 
L 144.666504 276.346183 
Q 145.745413 275.304091 144.703322 274.225182 
L 141.341492 270.744575 
Q 140.2994 269.665666 139.220491 270.707757 
L 131.21296 278.442029 
Q 130.13405 279.48412 131.176141 280.563029 
L 134.537972 284.043636 
Q 135.580063 285.122546 136.658972 284.080454 
z
" style="fill:#ffffff;stroke:#ffffff;stroke-linejoin:miter;"/>
    </g>
    <g clip-path="url(#p57f02e372c)">
     <!-- 5.68 -->
     <g transform="translate(134.894473 282.253613)rotate(-44.005511)scale(0.05 -0.05)">
      <defs>
       <path d="M 31.78125 34.625 
Q 24.75 34.625 20.71875 30.859375 
Q 16.703125 27.09375 16.703125 20.515625 
Q 16.703125 13.921875 20.71875 10.15625 
Q 24.75 6.390625 31.78125 6.390625 
Q 38.8125 6.390625 42.859375 10.171875 
Q 46.921875 13.96875 46.921875 20.515625 
Q 46.921875 27.09375 42.890625 30.859375 
Q 38.875 34.625 31.78125 34.625 
z
M 21.921875 38.8125 
Q 15.578125 40.375 12.03125 44.71875 
Q 8.5 49.078125 8.5 55.328125 
Q 8.5 64.0625 14.71875 69.140625 
Q 20.953125 74.21875 31.78125 74.21875 
Q 42.671875 74.21875 48.875 69.140625 
Q 55.078125 64.0625 55.078125 55.328125 
Q 55.078125 49.078125 51.53125 44.71875 
Q 48 40.375 41.703125 38.8125 
Q 48.828125 37.15625 52.796875 32.3125 
Q 56.78125 27.484375 56.78125 20.515625 
Q 56.78125 9.90625 50.3125 4.234375 
Q 43.84375 -1.421875 31.78125 -1.421875 
Q 19.734375 -1.421875 13.25 4.234375 
Q 6.78125 9.90625 6.78125 20.515625 
Q 6.78125 27.484375 10.78125 32.3125 
Q 14.796875 37.15625 21.921875 38.8125 
z
M 18.3125 54.390625 
Q 18.3125 48.734375 21.84375 45.5625 
Q 25.390625 42.390625 31.78125 42.390625 
Q 38.140625 42.390625 41.71875 45.5625 
Q 45.3125 48.734375 45.3125 54.390625 
Q 45.3125 60.0625 41.71875 63.234375 
Q 38.140625 66.40625 31.78125 66.40625 
Q 25.390625 66.40625 21.84375 63.234375 
Q 18.3125 60.0625 18.3125 54.390625 
z
" id="DejaVuSans-56"/>
      </defs>
      <use xlink:href="#DejaVuSans-53"/>
      <use x="63.623047" xlink:href="#DejaVuSans-46"/>
      <use x="95.410156" xlink:href="#DejaVuSans-54"/>
      <use x="159.033203" xlink:href="#DejaVuSans-56"/>
     </g>
    </g>
   </g>
   <g id="text_12">
    <g id="patch_13">
     <path clip-path="url(#p57f02e372c)" d="M 104.069901 221.441126 
L 106.330499 232.342007 
Q 106.635085 233.810758 108.103835 233.506172 
L 112.842085 232.523566 
Q 114.310835 232.21898 114.006249 230.750229 
L 111.745652 219.849348 
Q 111.441066 218.380598 109.972315 218.685184 
L 105.234066 219.66779 
Q 103.765315 219.972376 104.069901 221.441126 
z
" style="fill:#ffffff;stroke:#ffffff;stroke-linejoin:miter;"/>
    </g>
    <g clip-path="url(#p57f02e372c)">
     <!-- 4.82 -->
     <g transform="translate(106.556832 220.925393)rotate(-281.715793)scale(0.05 -0.05)">
      <use xlink:href="#DejaVuSans-52"/>
      <use x="63.623047" xlink:href="#DejaVuSans-46"/>
      <use x="95.410156" xlink:href="#DejaVuSans-56"/>
      <use x="159.033203" xlink:href="#DejaVuSans-50"/>
     </g>
    </g>
   </g>
   <g id="text_13">
    <g id="patch_14">
     <path clip-path="url(#p57f02e372c)" d="M 163.837208 246.296943 
L 166.454521 235.476167 
Q 166.807169 234.01821 165.349212 233.665562 
L 160.645782 232.527903 
Q 159.187824 232.175255 158.835176 233.633212 
L 156.217864 244.453988 
Q 155.865215 245.911945 157.323172 246.264593 
L 162.026603 247.402252 
Q 163.48456 247.7549 163.837208 246.296943 
z
" style="fill:#ffffff;stroke:#ffffff;stroke-linejoin:miter;"/>
    </g>
    <g clip-path="url(#p57f02e372c)">
     <!-- 4.28 -->
     <g transform="translate(161.368553 245.699828)rotate(-76.402545)scale(0.05 -0.05)">
      <use xlink:href="#DejaVuSans-52"/>
      <use x="63.623047" xlink:href="#DejaVuSans-46"/>
      <use x="95.410156" xlink:href="#DejaVuSans-50"/>
      <use x="159.033203" xlink:href="#DejaVuSans-56"/>
     </g>
    </g>
   </g>
   <g id="text_14">
    <g id="patch_15">
     <path clip-path="url(#p57f02e372c)" d="M 213.796639 308.558001 
L 217.527531 319.047041 
Q 218.030219 320.460301 219.44348 319.957613 
L 224.002716 318.335919 
Q 225.415976 317.83323 224.913287 316.41997 
L 221.182396 305.93093 
Q 220.679707 304.51767 219.266447 305.020358 
L 214.707211 306.642052 
Q 213.293951 307.144741 213.796639 308.558001 
z
" style="fill:#ffffff;stroke:#ffffff;stroke-linejoin:miter;"/>
    </g>
    <g clip-path="url(#p57f02e372c)">
     <!-- 3.98 -->
     <g transform="translate(216.189613 307.706834)rotate(-289.580181)scale(0.05 -0.05)">
      <use xlink:href="#DejaVuSans-51"/>
      <use x="63.623047" xlink:href="#DejaVuSans-46"/>
      <use x="95.410156" xlink:href="#DejaVuSans-57"/>
      <use x="159.033203" xlink:href="#DejaVuSans-56"/>
     </g>
    </g>
   </g>
   <g id="text_15">
    <g id="patch_16">
     <path clip-path="url(#p57f02e372c)" d="M 230.957286 329.253439 
L 237.702975 320.397075 
Q 238.611868 319.203796 237.41859 318.294904 
L 233.569023 315.362777 
Q 232.375745 314.453884 231.466852 315.647163 
L 224.721162 324.503527 
Q 223.812269 325.696805 225.005548 326.605698 
L 228.855114 329.537825 
Q 230.048393 330.446718 230.957286 329.253439 
z
" style="fill:#ffffff;stroke:#ffffff;stroke-linejoin:miter;"/>
    </g>
    <g clip-path="url(#p57f02e372c)">
     <!-- 2.03 -->
     <g transform="translate(228.936791 327.714475)rotate(-52.704306)scale(0.05 -0.05)">
      <use xlink:href="#DejaVuSans-50"/>
      <use x="63.623047" xlink:href="#DejaVuSans-46"/>
      <use x="95.410156" xlink:href="#DejaVuSans-48"/>
      <use x="159.033203" xlink:href="#DejaVuSans-51"/>
     </g>
    </g>
   </g>
   <g id="text_16">
    <g id="patch_17">
     <path clip-path="url(#p57f02e372c)" d="M 265.131644 333.81044 
L 276.264457 333.81044 
Q 277.764457 333.81044 277.764457 332.31044 
L 277.764457 327.471378 
Q 277.764457 325.971378 276.264457 325.971378 
L 265.131644 325.971378 
Q 263.631644 325.971378 263.631644 327.471378 
L 263.631644 332.31044 
Q 263.631644 333.81044 265.131644 333.81044 
z
" style="fill:#ffffff;stroke:#ffffff;stroke-linejoin:miter;"/>
    </g>
    <g clip-path="url(#p57f02e372c)">
     <!-- 10.0 -->
     <g transform="translate(265.131644 331.270597)scale(0.05 -0.05)">
      <use xlink:href="#DejaVuSans-49"/>
      <use x="63.623047" xlink:href="#DejaVuSans-48"/>
      <use x="127.246094" xlink:href="#DejaVuSans-46"/>
      <use x="159.033203" xlink:href="#DejaVuSans-48"/>
     </g>
    </g>
   </g>
   <g id="text_17">
    <g id="patch_18">
     <path clip-path="url(#p57f02e372c)" d="M 224.287729 282.770094 
L 229.586492 272.979147 
Q 230.30043 271.659946 228.981229 270.946008 
L 224.725431 268.642812 
Q 223.40623 267.928874 222.692291 269.248075 
L 217.393529 279.039021 
Q 216.67959 280.358222 217.998791 281.072161 
L 222.254589 283.375356 
Q 223.573791 284.089295 224.287729 282.770094 
z
" style="fill:#ffffff;stroke:#ffffff;stroke-linejoin:miter;"/>
    </g>
    <g clip-path="url(#p57f02e372c)">
     <!-- 4.69 -->
     <g transform="translate(222.054019 281.561232)rotate(-61.57819)scale(0.05 -0.05)">
      <use xlink:href="#DejaVuSans-52"/>
      <use x="63.623047" xlink:href="#DejaVuSans-46"/>
      <use x="95.410156" xlink:href="#DejaVuSans-54"/>
      <use x="159.033203" xlink:href="#DejaVuSans-57"/>
     </g>
    </g>
   </g>
   <g id="text_18">
    <g id="patch_19">
     <path clip-path="url(#p57f02e372c)" d="M 231.680881 286.083698 
L 238.039105 281.308729 
Q 239.238534 280.407969 238.337774 279.208539 
L 235.431883 275.339131 
Q 234.531122 274.139701 233.331693 275.040462 
L 226.973469 279.815431 
Q 225.774039 280.716191 226.6748 281.915621 
L 229.580691 285.785029 
Q 230.481451 286.984459 231.680881 286.083698 
z
" style="fill:#ffffff;stroke:#ffffff;stroke-linejoin:miter;"/>
    </g>
    <g clip-path="url(#p57f02e372c)">
     <!-- 5.3 -->
     <g transform="translate(230.155687 284.052789)rotate(-36.906217)scale(0.05 -0.05)">
      <use xlink:href="#DejaVuSans-53"/>
      <use x="63.623047" xlink:href="#DejaVuSans-46"/>
      <use x="95.410156" xlink:href="#DejaVuSans-51"/>
     </g>
    </g>
   </g>
   <g id="text_19">
    <g id="patch_20">
     <path clip-path="url(#p57f02e372c)" d="M 211.39007 282.719447 
L 217.42402 292.075246 
Q 218.237015 293.335816 219.497586 292.522821 
L 223.56424 289.900064 
Q 224.82481 289.087069 224.011815 287.826498 
L 217.977865 278.4707 
Q 217.16487 277.210129 215.904299 278.023124 
L 211.837646 280.645881 
Q 210.577075 281.458876 211.39007 282.719447 
z
" style="fill:#ffffff;stroke:#ffffff;stroke-linejoin:miter;"/>
    </g>
    <g clip-path="url(#p57f02e372c)">
     <!-- 7.67 -->
     <g transform="translate(213.524505 281.34286)rotate(-302.819679)scale(0.05 -0.05)">
      <defs>
       <path d="M 8.203125 72.90625 
L 55.078125 72.90625 
L 55.078125 68.703125 
L 28.609375 0 
L 18.3125 0 
L 43.21875 64.59375 
L 8.203125 64.59375 
z
" id="DejaVuSans-55"/>
      </defs>
      <use xlink:href="#DejaVuSans-55"/>
      <use x="63.623047" xlink:href="#DejaVuSans-46"/>
      <use x="95.410156" xlink:href="#DejaVuSans-54"/>
      <use x="159.033203" xlink:href="#DejaVuSans-55"/>
     </g>
    </g>
   </g>
   <g id="text_20">
    <g id="patch_21">
     <path clip-path="url(#p57f02e372c)" d="M 297.032995 323.196936 
L 306.585851 328.913792 
Q 307.872973 329.684064 308.643244 328.396942 
L 311.128171 324.244634 
Q 311.898443 322.957512 310.611321 322.187241 
L 301.058465 316.470384 
Q 299.771343 315.700113 299.001072 316.987235 
L 296.516145 321.139543 
Q 295.745873 322.426665 297.032995 323.196936 
z
" style="fill:#ffffff;stroke:#ffffff;stroke-linejoin:miter;"/>
    </g>
    <g clip-path="url(#p57f02e372c)">
     <!-- 3.08 -->
     <g transform="translate(298.337241 321.017544)rotate(-329.10181)scale(0.05 -0.05)">
      <use xlink:href="#DejaVuSans-51"/>
      <use x="63.623047" xlink:href="#DejaVuSans-46"/>
      <use x="95.410156" xlink:href="#DejaVuSans-48"/>
      <use x="159.033203" xlink:href="#DejaVuSans-56"/>
     </g>
    </g>
   </g>
   <g id="text_21">
    <g id="patch_22">
     <path clip-path="url(#p57f02e372c)" d="M 321.519068 315.813123 
L 322.482881 307.920188 
Q 322.664697 306.431248 321.175756 306.249432 
L 316.372373 305.662887 
Q 314.883433 305.481072 314.701617 306.970012 
L 313.737805 314.862946 
Q 313.555989 316.351887 315.044929 316.533702 
L 319.848313 317.120247 
Q 321.337253 317.302063 321.519068 315.813123 
z
" style="fill:#ffffff;stroke:#ffffff;stroke-linejoin:miter;"/>
    </g>
    <g clip-path="url(#p57f02e372c)">
     <!-- 4.0 -->
     <g transform="translate(318.997951 315.505267)rotate(-83.038033)scale(0.05 -0.05)">
      <use xlink:href="#DejaVuSans-52"/>
      <use x="63.623047" xlink:href="#DejaVuSans-46"/>
      <use x="95.410156" xlink:href="#DejaVuSans-48"/>
     </g>
    </g>
   </g>
   <g id="text_22">
    <g id="patch_23">
     <path clip-path="url(#p57f02e372c)" d="M 330.354073 325.849944 
L 339.93059 320.17281 
Q 341.220899 319.407891 340.45598 318.117581 
L 337.988319 313.954989 
Q 337.2234 312.664679 335.93309 313.429598 
L 326.356574 319.106732 
Q 325.066265 319.871652 325.831184 321.161961 
L 328.298845 325.324553 
Q 329.063764 326.614863 330.354073 325.849944 
z
" style="fill:#ffffff;stroke:#ffffff;stroke-linejoin:miter;"/>
    </g>
    <g clip-path="url(#p57f02e372c)">
     <!-- 4.42 -->
     <g transform="translate(329.05889 323.665154)rotate(-30.660239)scale(0.05 -0.05)">
      <use xlink:href="#DejaVuSans-52"/>
      <use x="63.623047" xlink:href="#DejaVuSans-46"/>
      <use x="95.410156" xlink:href="#DejaVuSans-52"/>
      <use x="159.033203" xlink:href="#DejaVuSans-50"/>
     </g>
    </g>
   </g>
   <g id="text_23">
    <g id="patch_24">
     <path clip-path="url(#p57f02e372c)" d="M 355.43829 333.81044 
L 366.571103 333.81044 
Q 368.071103 333.81044 368.071103 332.31044 
L 368.071103 327.471378 
Q 368.071103 325.971378 366.571103 325.971378 
L 355.43829 325.971378 
Q 353.93829 325.971378 353.93829 327.471378 
L 353.93829 332.31044 
Q 353.93829 333.81044 355.43829 333.81044 
z
" style="fill:#ffffff;stroke:#ffffff;stroke-linejoin:miter;"/>
    </g>
    <g clip-path="url(#p57f02e372c)">
     <!-- 10.0 -->
     <g transform="translate(355.43829 331.270597)scale(0.05 -0.05)">
      <use xlink:href="#DejaVuSans-49"/>
      <use x="63.623047" xlink:href="#DejaVuSans-48"/>
      <use x="127.246094" xlink:href="#DejaVuSans-46"/>
      <use x="159.033203" xlink:href="#DejaVuSans-48"/>
     </g>
    </g>
   </g>
   <g id="text_24">
    <g id="patch_25">
     <path clip-path="url(#p57f02e372c)" d="M 309.270207 283.736276 
L 318.211975 290.368341 
Q 319.416761 291.261925 320.310344 290.057139 
L 323.193082 286.17045 
Q 324.086666 284.965665 322.88188 284.072081 
L 313.940112 277.440016 
Q 312.735326 276.546432 311.841743 277.751218 
L 308.959005 281.637907 
Q 308.065421 282.842692 309.270207 283.736276 
z
" style="fill:#ffffff;stroke:#ffffff;stroke-linejoin:miter;"/>
    </g>
    <g clip-path="url(#p57f02e372c)">
     <!-- 9.37 -->
     <g transform="translate(310.783249 281.696298)rotate(-323.435854)scale(0.05 -0.05)">
      <use xlink:href="#DejaVuSans-57"/>
      <use x="63.623047" xlink:href="#DejaVuSans-46"/>
      <use x="95.410156" xlink:href="#DejaVuSans-51"/>
      <use x="159.033203" xlink:href="#DejaVuSans-55"/>
     </g>
    </g>
   </g>
   <g id="text_25">
    <g id="patch_26">
     <path clip-path="url(#p57f02e372c)" d="M 335.811762 284.201459 
L 340.055207 294.49382 
Q 340.626955 295.88058 342.013715 295.308832 
L 346.487461 293.464348 
Q 347.874222 292.8926 347.302473 291.50584 
L 343.059029 281.213479 
Q 342.487281 279.826719 341.100521 280.398467 
L 336.626774 282.242951 
Q 335.240014 282.814699 335.811762 284.201459 
z
" style="fill:#ffffff;stroke:#ffffff;stroke-linejoin:miter;"/>
    </g>
    <g clip-path="url(#p57f02e372c)">
     <!-- 5.02 -->
     <g transform="translate(338.159865 283.233358)rotate(-292.405896)scale(0.05 -0.05)">
      <use xlink:href="#DejaVuSans-53"/>
      <use x="63.623047" xlink:href="#DejaVuSans-46"/>
      <use x="95.410156" xlink:href="#DejaVuSans-48"/>
      <use x="159.033203" xlink:href="#DejaVuSans-50"/>
     </g>
    </g>
   </g>
   <g id="text_26">
    <g id="patch_27">
     <path clip-path="url(#p57f02e372c)" d="M 382.548034 310.923609 
L 390.251695 318.960592 
Q 391.289662 320.04347 392.37254 319.005503 
L 395.865949 315.656978 
Q 396.948827 314.619011 395.91086 313.536133 
L 388.207198 305.499149 
Q 387.169231 304.416272 386.086354 305.454239 
L 382.592945 308.802764 
Q 381.510067 309.840731 382.548034 310.923609 
z
" style="fill:#ffffff;stroke:#ffffff;stroke-linejoin:miter;"/>
    </g>
    <g clip-path="url(#p57f02e372c)">
     <!-- 5.33 -->
     <g transform="translate(384.381594 309.166092)rotate(-313.786892)scale(0.05 -0.05)">
      <use xlink:href="#DejaVuSans-53"/>
      <use x="63.623047" xlink:href="#DejaVuSans-46"/>
      <use x="95.410156" xlink:href="#DejaVuSans-51"/>
      <use x="159.033203" xlink:href="#DejaVuSans-51"/>
     </g>
    </g>
   </g>
   <g id="text_27">
    <g id="patch_28">
     <path clip-path="url(#p57f02e372c)" d="M 420.346226 325.691248 
L 429.802889 319.816638 
Q 431.07705 319.025112 430.285523 317.750951 
L 427.732026 313.640455 
Q 426.9405 312.366294 425.666339 313.157821 
L 416.209676 319.032431 
Q 414.935515 319.823957 415.727041 321.098118 
L 418.280539 325.208614 
Q 419.072065 326.482775 420.346226 325.691248 
z
" style="fill:#ffffff;stroke:#ffffff;stroke-linejoin:miter;"/>
    </g>
    <g clip-path="url(#p57f02e372c)">
     <!-- 4.36 -->
     <g transform="translate(419.00599 323.533802)rotate(-31.849123)scale(0.05 -0.05)">
      <use xlink:href="#DejaVuSans-52"/>
      <use x="63.623047" xlink:href="#DejaVuSans-46"/>
      <use x="95.410156" xlink:href="#DejaVuSans-51"/>
      <use x="159.033203" xlink:href="#DejaVuSans-54"/>
     </g>
    </g>
   </g>
   <g id="text_28">
    <g id="patch_29">
     <path clip-path="url(#p57f02e372c)" d="M 394.838459 282.243111 
L 403.676537 275.473481 
Q 404.867352 274.561363 403.955233 273.370548 
L 401.012701 269.52893 
Q 400.100583 268.338115 398.909768 269.250234 
L 390.07169 276.019864 
Q 388.880875 276.931982 389.792993 278.122797 
L 392.735526 281.964415 
Q 393.647644 283.15523 394.838459 282.243111 
z
" style="fill:#ffffff;stroke:#ffffff;stroke-linejoin:miter;"/>
    </g>
    <g clip-path="url(#p57f02e372c)">
     <!-- 6.78 -->
     <g transform="translate(393.294033 280.226789)rotate(-37.450733)scale(0.05 -0.05)">
      <use xlink:href="#DejaVuSans-54"/>
      <use x="63.623047" xlink:href="#DejaVuSans-46"/>
      <use x="95.410156" xlink:href="#DejaVuSans-55"/>
      <use x="159.033203" xlink:href="#DejaVuSans-56"/>
     </g>
    </g>
   </g>
   <g id="text_29">
    <g id="patch_30">
     <path clip-path="url(#p57f02e372c)" d="M 400.140049 281.83305 
L 408.790911 288.840339 
Q 409.956501 289.784479 410.900641 288.61889 
L 413.946476 284.858649 
Q 414.890616 283.693059 413.725026 282.748919 
L 405.074165 275.741629 
Q 403.908575 274.797489 402.964435 275.963079 
L 399.9186 279.72332 
Q 398.97446 280.88891 400.140049 281.83305 
z
" style="fill:#ffffff;stroke:#ffffff;stroke-linejoin:miter;"/>
    </g>
    <g clip-path="url(#p57f02e372c)">
     <!-- 9.27 -->
     <g transform="translate(401.738695 279.859439)rotate(-320.99216)scale(0.05 -0.05)">
      <use xlink:href="#DejaVuSans-57"/>
      <use x="63.623047" xlink:href="#DejaVuSans-46"/>
      <use x="95.410156" xlink:href="#DejaVuSans-50"/>
      <use x="159.033203" xlink:href="#DejaVuSans-55"/>
     </g>
    </g>
   </g>
   <g id="text_30">
    <g id="patch_31">
     <path clip-path="url(#p57f02e372c)" d="M 414.571799 229.916172 
L 415.773703 240.983915 
Q 415.935644 242.475148 417.426877 242.313207 
L 422.237656 241.790779 
Q 423.728889 241.628838 423.566948 240.137606 
L 422.365043 229.069862 
Q 422.203102 227.57863 420.71187 227.74057 
L 415.901091 228.262998 
Q 414.409858 228.424939 414.571799 229.916172 
z
" style="fill:#ffffff;stroke:#ffffff;stroke-linejoin:miter;"/>
    </g>
    <g clip-path="url(#p57f02e372c)">
     <!-- 4.73 -->
     <g transform="translate(417.096798 229.641969)rotate(-276.197764)scale(0.05 -0.05)">
      <use xlink:href="#DejaVuSans-52"/>
      <use x="63.623047" xlink:href="#DejaVuSans-46"/>
      <use x="95.410156" xlink:href="#DejaVuSans-55"/>
      <use x="159.033203" xlink:href="#DejaVuSans-51"/>
     </g>
    </g>
   </g>
   <g id="text_31">
    <g id="patch_32">
     <path clip-path="url(#p57f02e372c)" d="M 51.106244 142.818126 
L 58.804489 134.775953 
Q 59.841726 133.692376 58.758149 132.655139 
L 55.262485 129.308969 
Q 54.178908 128.271731 53.141671 129.355308 
L 45.443426 137.397481 
Q 44.406189 138.481058 45.489765 139.518295 
L 48.98543 142.864465 
Q 50.069007 143.901703 51.106244 142.818126 
z
" style="fill:#ffffff;stroke:#ffffff;stroke-linejoin:miter;"/>
    </g>
    <g clip-path="url(#p57f02e372c)">
     <!-- 2.27 -->
     <g transform="translate(49.2715 141.061845)rotate(-46.251712)scale(0.05 -0.05)">
      <use xlink:href="#DejaVuSans-50"/>
      <use x="63.623047" xlink:href="#DejaVuSans-46"/>
      <use x="95.410156" xlink:href="#DejaVuSans-50"/>
      <use x="159.033203" xlink:href="#DejaVuSans-55"/>
     </g>
    </g>
   </g>
   <g id="text_32">
    <g id="patch_33">
     <path clip-path="url(#p57f02e372c)" d="M 84.518353 147.520103 
L 95.651166 147.520103 
Q 97.151166 147.520103 97.151166 146.020103 
L 97.151166 141.18104 
Q 97.151166 139.68104 95.651166 139.68104 
L 84.518353 139.68104 
Q 83.018353 139.68104 83.018353 141.18104 
L 83.018353 146.020103 
Q 83.018353 147.520103 84.518353 147.520103 
z
" style="fill:#ffffff;stroke:#ffffff;stroke-linejoin:miter;"/>
    </g>
    <g clip-path="url(#p57f02e372c)">
     <!-- 10.0 -->
     <g transform="translate(84.518353 144.980259)scale(0.05 -0.05)">
      <use xlink:href="#DejaVuSans-49"/>
      <use x="63.623047" xlink:href="#DejaVuSans-48"/>
      <use x="127.246094" xlink:href="#DejaVuSans-46"/>
      <use x="159.033203" xlink:href="#DejaVuSans-48"/>
     </g>
    </g>
   </g>
   <g id="text_33">
    <g id="patch_34">
     <path clip-path="url(#p57f02e372c)" d="M 35.697511 93.186739 
L 39.483819 100.178964 
Q 40.198076 101.497993 41.517105 100.783736 
L 45.772346 98.479512 
Q 47.091375 97.765255 46.377118 96.446226 
L 42.59081 89.454 
Q 41.876553 88.134972 40.557524 88.849229 
L 36.302283 91.153453 
Q 34.983254 91.86771 35.697511 93.186739 
z
" style="fill:#ffffff;stroke:#ffffff;stroke-linejoin:miter;"/>
    </g>
    <g clip-path="url(#p57f02e372c)">
     <!-- 8.3 -->
     <g transform="translate(37.930929 91.977337)rotate(-298.435655)scale(0.05 -0.05)">
      <use xlink:href="#DejaVuSans-56"/>
      <use x="63.623047" xlink:href="#DejaVuSans-46"/>
      <use x="95.410156" xlink:href="#DejaVuSans-51"/>
     </g>
    </g>
   </g>
   <g id="text_34">
    <g id="patch_35">
     <path clip-path="url(#p57f02e372c)" d="M 67.585661 101.406924 
L 69.326495 90.411061 
Q 69.561049 88.929513 68.079502 88.694958 
L 63.299966 87.938276 
Q 61.818418 87.703721 61.583864 89.185269 
L 59.84303 100.181132 
Q 59.608475 101.66268 61.090023 101.897235 
L 65.869558 102.653918 
Q 67.351106 102.888472 67.585661 101.406924 
z
" style="fill:#ffffff;stroke:#ffffff;stroke-linejoin:miter;"/>
    </g>
    <g clip-path="url(#p57f02e372c)">
     <!-- 7.24 -->
     <g transform="translate(65.077061 101.00977)rotate(-81.003759)scale(0.05 -0.05)">
      <use xlink:href="#DejaVuSans-55"/>
      <use x="63.623047" xlink:href="#DejaVuSans-46"/>
      <use x="95.410156" xlink:href="#DejaVuSans-50"/>
      <use x="159.033203" xlink:href="#DejaVuSans-52"/>
     </g>
    </g>
   </g>
   <g id="text_35">
    <g id="patch_36">
     <path clip-path="url(#p57f02e372c)" d="M 17.713085 32.979172 
L 18.157712 44.103102 
Q 18.21762 45.601905 19.716423 45.541997 
L 24.551625 45.348733 
Q 26.050428 45.288825 25.99052 43.790022 
L 25.545893 32.666092 
Q 25.485985 31.167288 23.987182 31.227196 
L 19.15198 31.420461 
Q 17.653177 31.480368 17.713085 32.979172 
z
" style="fill:#ffffff;stroke:#ffffff;stroke-linejoin:miter;"/>
    </g>
    <g clip-path="url(#p57f02e372c)">
     <!-- 4.87 -->
     <g transform="translate(20.250902 32.877734)rotate(-272.288915)scale(0.05 -0.05)">
      <use xlink:href="#DejaVuSans-52"/>
      <use x="63.623047" xlink:href="#DejaVuSans-46"/>
      <use x="95.410156" xlink:href="#DejaVuSans-56"/>
      <use x="159.033203" xlink:href="#DejaVuSans-55"/>
     </g>
    </g>
   </g>
   <g id="text_36">
    <g id="patch_37">
     <path clip-path="url(#p57f02e372c)" d="M 41.335785 53.213205 
L 50.553829 46.970836 
Q 51.79584 46.129759 50.954762 44.887748 
L 48.241413 40.880972 
Q 47.400335 39.638962 46.158325 40.480039 
L 36.940281 46.722408 
Q 35.698271 47.563485 36.539348 48.805495 
L 39.252698 52.812272 
Q 40.093775 54.054282 41.335785 53.213205 
z
" style="fill:#ffffff;stroke:#ffffff;stroke-linejoin:miter;"/>
    </g>
    <g clip-path="url(#p57f02e372c)">
     <!-- 5.56 -->
     <g transform="translate(39.911649 51.110197)rotate(-34.105473)scale(0.05 -0.05)">
      <use xlink:href="#DejaVuSans-53"/>
      <use x="63.623047" xlink:href="#DejaVuSans-46"/>
      <use x="95.410156" xlink:href="#DejaVuSans-53"/>
      <use x="159.033203" xlink:href="#DejaVuSans-54"/>
     </g>
    </g>
   </g>
   <g id="text_37">
    <g id="patch_38">
     <path clip-path="url(#p57f02e372c)" d="M 126.221421 125.641812 
L 129.180166 136.374256 
Q 129.578818 137.820311 131.024874 137.421659 
L 135.689909 136.135591 
Q 137.135965 135.736939 136.737313 134.290883 
L 133.778567 123.55844 
Q 133.379915 122.112385 131.933859 122.511037 
L 127.268824 123.797105 
Q 125.822769 124.195757 126.221421 125.641812 
z
" style="fill:#ffffff;stroke:#ffffff;stroke-linejoin:miter;"/>
    </g>
    <g clip-path="url(#p57f02e372c)">
     <!-- 3.04 -->
     <g transform="translate(128.669924 124.966803)rotate(-285.412595)scale(0.05 -0.05)">
      <use xlink:href="#DejaVuSans-51"/>
      <use x="63.623047" xlink:href="#DejaVuSans-46"/>
      <use x="95.410156" xlink:href="#DejaVuSans-48"/>
      <use x="159.033203" xlink:href="#DejaVuSans-52"/>
     </g>
    </g>
   </g>
   <g id="text_38">
    <g id="patch_39">
     <path clip-path="url(#p57f02e372c)" d="M 174.824999 147.520103 
L 185.957811 147.520103 
Q 187.457811 147.520103 187.457811 146.020103 
L 187.457811 141.18104 
Q 187.457811 139.68104 185.957811 139.68104 
L 174.824999 139.68104 
Q 173.324999 139.68104 173.324999 141.18104 
L 173.324999 146.020103 
Q 173.324999 147.520103 174.824999 147.520103 
z
" style="fill:#ffffff;stroke:#ffffff;stroke-linejoin:miter;"/>
    </g>
    <g clip-path="url(#p57f02e372c)">
     <!-- 10.0 -->
     <g transform="translate(174.824999 144.980259)scale(0.05 -0.05)">
      <use xlink:href="#DejaVuSans-49"/>
      <use x="63.623047" xlink:href="#DejaVuSans-48"/>
      <use x="127.246094" xlink:href="#DejaVuSans-46"/>
      <use x="159.033203" xlink:href="#DejaVuSans-48"/>
     </g>
    </g>
   </g>
   <g id="text_39">
    <g id="patch_40">
     <path clip-path="url(#p57f02e372c)" d="M 139.363666 95.985761 
L 143.199575 85.53467 
Q 143.716413 84.126523 142.308266 83.609684 
L 137.765525 81.942342 
Q 136.357378 81.425504 135.84054 82.833651 
L 132.00463 93.284743 
Q 131.487792 94.69289 132.895939 95.209728 
L 137.43868 96.87707 
Q 138.846827 97.393908 139.363666 95.985761 
z
" style="fill:#ffffff;stroke:#ffffff;stroke-linejoin:miter;"/>
    </g>
    <g clip-path="url(#p57f02e372c)">
     <!-- 6.18 -->
     <g transform="translate(136.97935 95.110635)rotate(-69.84513)scale(0.05 -0.05)">
      <use xlink:href="#DejaVuSans-54"/>
      <use x="63.623047" xlink:href="#DejaVuSans-46"/>
      <use x="95.410156" xlink:href="#DejaVuSans-49"/>
      <use x="159.033203" xlink:href="#DejaVuSans-56"/>
     </g>
    </g>
   </g>
   <g id="text_40">
    <g id="patch_41">
     <path clip-path="url(#p57f02e372c)" d="M 120.771435 39.307896 
L 128.319459 47.491223 
Q 129.336456 48.593819 130.439052 47.576822 
L 133.996072 44.295948 
Q 135.098667 43.278951 134.08167 42.176355 
L 126.533646 33.993028 
Q 125.516649 32.890432 124.414054 33.907429 
L 120.857034 37.188303 
Q 119.754438 38.2053 120.771435 39.307896 
z
" style="fill:#ffffff;stroke:#ffffff;stroke-linejoin:miter;"/>
    </g>
    <g clip-path="url(#p57f02e372c)">
     <!-- 6.44 -->
     <g transform="translate(122.638382 37.585887)rotate(-312.687393)scale(0.05 -0.05)">
      <use xlink:href="#DejaVuSans-54"/>
      <use x="63.623047" xlink:href="#DejaVuSans-46"/>
      <use x="95.410156" xlink:href="#DejaVuSans-52"/>
      <use x="159.033203" xlink:href="#DejaVuSans-52"/>
     </g>
    </g>
   </g>
   <g id="text_41">
    <g id="patch_42">
     <path clip-path="url(#p57f02e372c)" d="M 134.098606 42.941889 
L 138.782414 53.041466 
Q 139.413496 54.402251 140.774281 53.771169 
L 145.16423 51.735274 
Q 146.525015 51.104192 145.893934 49.743407 
L 141.210125 39.64383 
Q 140.579044 38.283045 139.218259 38.914127 
L 134.828309 40.950022 
Q 133.467524 41.581104 134.098606 42.941889 
z
" style="fill:#ffffff;stroke:#ffffff;stroke-linejoin:miter;"/>
    </g>
    <g clip-path="url(#p57f02e372c)">
     <!-- 3.84 -->
     <g transform="translate(136.402727 41.873323)rotate(-294.880119)scale(0.05 -0.05)">
      <use xlink:href="#DejaVuSans-51"/>
      <use x="63.623047" xlink:href="#DejaVuSans-46"/>
      <use x="95.410156" xlink:href="#DejaVuSans-56"/>
      <use x="159.033203" xlink:href="#DejaVuSans-52"/>
     </g>
    </g>
   </g>
   <g id="text_42">
    <g id="patch_43">
     <path clip-path="url(#p57f02e372c)" d="M 160.028028 51.308914 
L 166.382628 42.167876 
Q 167.238827 40.936241 166.007193 40.080043 
L 162.033888 37.31791 
Q 160.802254 36.461711 159.946055 37.693345 
L 153.591455 46.834383 
Q 152.735256 48.066018 153.96689 48.922216 
L 157.940195 51.684349 
Q 159.171829 52.540548 160.028028 51.308914 
z
" style="fill:#ffffff;stroke:#ffffff;stroke-linejoin:miter;"/>
    </g>
    <g clip-path="url(#p57f02e372c)">
     <!-- 4.75 -->
     <g transform="translate(157.942588 49.859173)rotate(-55.194026)scale(0.05 -0.05)">
      <use xlink:href="#DejaVuSans-52"/>
      <use x="63.623047" xlink:href="#DejaVuSans-46"/>
      <use x="95.410156" xlink:href="#DejaVuSans-55"/>
      <use x="159.033203" xlink:href="#DejaVuSans-53"/>
     </g>
    </g>
   </g>
   <g id="text_43">
    <g id="patch_44">
     <path clip-path="url(#p57f02e372c)" d="M 200.833713 130.769827 
L 209.893477 137.239773 
Q 211.114161 138.111513 211.985901 136.890829 
L 214.79817 132.952851 
Q 215.66991 131.732167 214.449226 130.860427 
L 205.389463 124.390482 
Q 204.168779 123.518742 203.297039 124.739426 
L 200.484769 128.677403 
Q 199.613029 129.898087 200.833713 130.769827 
z
" style="fill:#ffffff;stroke:#ffffff;stroke-linejoin:miter;"/>
    </g>
    <g clip-path="url(#p57f02e372c)">
     <!-- 4.82 -->
     <g transform="translate(202.309768 128.702929)rotate(-324.467827)scale(0.05 -0.05)">
      <use xlink:href="#DejaVuSans-52"/>
      <use x="63.623047" xlink:href="#DejaVuSans-46"/>
      <use x="95.410156" xlink:href="#DejaVuSans-56"/>
      <use x="159.033203" xlink:href="#DejaVuSans-50"/>
     </g>
    </g>
   </g>
   <g id="text_44">
    <g id="patch_45">
     <path clip-path="url(#p57f02e372c)" d="M 232.969853 133.986518 
L 236.567823 123.451143 
Q 237.052602 122.03164 235.633099 121.546861 
L 231.053722 119.982943 
Q 229.634219 119.498164 229.14944 120.917668 
L 225.55147 131.453043 
Q 225.066691 132.872546 226.486194 133.357325 
L 231.065571 134.921242 
Q 232.485074 135.406021 232.969853 133.986518 
z
" style="fill:#ffffff;stroke:#ffffff;stroke-linejoin:miter;"/>
    </g>
    <g clip-path="url(#p57f02e372c)">
     <!-- 3.68 -->
     <g transform="translate(230.566309 133.165676)rotate(-71.144287)scale(0.05 -0.05)">
      <use xlink:href="#DejaVuSans-51"/>
      <use x="63.623047" xlink:href="#DejaVuSans-46"/>
      <use x="95.410156" xlink:href="#DejaVuSans-54"/>
      <use x="159.033203" xlink:href="#DejaVuSans-56"/>
     </g>
    </g>
   </g>
   <g id="text_45">
    <g id="patch_46">
     <path clip-path="url(#p57f02e372c)" d="M 265.131644 147.520103 
L 276.264457 147.520103 
Q 277.764457 147.520103 277.764457 146.020103 
L 277.764457 141.18104 
Q 277.764457 139.68104 276.264457 139.68104 
L 265.131644 139.68104 
Q 263.631644 139.68104 263.631644 141.18104 
L 263.631644 146.020103 
Q 263.631644 147.520103 265.131644 147.520103 
z
" style="fill:#ffffff;stroke:#ffffff;stroke-linejoin:miter;"/>
    </g>
    <g clip-path="url(#p57f02e372c)">
     <!-- 10.0 -->
     <g transform="translate(265.131644 144.980259)scale(0.05 -0.05)">
      <use xlink:href="#DejaVuSans-49"/>
      <use x="63.623047" xlink:href="#DejaVuSans-48"/>
      <use x="127.246094" xlink:href="#DejaVuSans-46"/>
      <use x="159.033203" xlink:href="#DejaVuSans-48"/>
     </g>
    </g>
   </g>
   <g id="text_46">
    <g id="patch_47">
     <path clip-path="url(#p57f02e372c)" d="M 194.895566 95.347804 
L 195.499394 84.231379 
Q 195.580752 82.733587 194.08296 82.65223 
L 189.25102 82.389766 
Q 187.753228 82.308408 187.67187 83.8062 
L 187.068043 94.922625 
Q 186.986685 96.420417 188.484477 96.501775 
L 193.316416 96.764239 
Q 194.814208 96.845596 194.895566 95.347804 
z
" style="fill:#ffffff;stroke:#ffffff;stroke-linejoin:miter;"/>
    </g>
    <g clip-path="url(#p57f02e372c)">
     <!-- 6.12 -->
     <g transform="translate(192.359461 95.210047)rotate(-86.890834)scale(0.05 -0.05)">
      <use xlink:href="#DejaVuSans-54"/>
      <use x="63.623047" xlink:href="#DejaVuSans-46"/>
      <use x="95.410156" xlink:href="#DejaVuSans-49"/>
      <use x="159.033203" xlink:href="#DejaVuSans-50"/>
     </g>
    </g>
   </g>
   <g id="text_47">
    <g id="patch_48">
     <path clip-path="url(#p57f02e372c)" d="M 205.995165 96.793583 
L 211.393805 87.057352 
Q 212.121201 85.745523 210.809372 85.018127 
L 206.577357 82.671519 
Q 205.265527 81.944123 204.538132 83.255952 
L 199.139492 92.992183 
Q 198.412096 94.304012 199.723925 95.031408 
L 203.95594 97.378017 
Q 205.267769 98.105413 205.995165 96.793583 
z
" style="fill:#ffffff;stroke:#ffffff;stroke-linejoin:miter;"/>
    </g>
    <g clip-path="url(#p57f02e372c)">
     <!-- 6.93 -->
     <g transform="translate(203.773938 95.561936)rotate(-60.992083)scale(0.05 -0.05)">
      <use xlink:href="#DejaVuSans-54"/>
      <use x="63.623047" xlink:href="#DejaVuSans-46"/>
      <use x="95.410156" xlink:href="#DejaVuSans-57"/>
      <use x="159.033203" xlink:href="#DejaVuSans-51"/>
     </g>
    </g>
   </g>
   <g id="text_48">
    <g id="patch_49">
     <path clip-path="url(#p57f02e372c)" d="M 219.195627 98.13727 
L 227.678502 90.927531 
Q 228.821458 89.956113 227.850041 88.813157 
L 224.716208 85.125934 
Q 223.74479 83.982978 222.601834 84.954396 
L 214.118959 92.164135 
Q 212.976003 93.135552 213.94742 94.278508 
L 217.081253 97.965731 
Q 218.052671 99.108687 219.195627 98.13727 
z
" style="fill:#ffffff;stroke:#ffffff;stroke-linejoin:miter;"/>
    </g>
    <g clip-path="url(#p57f02e372c)">
     <!-- 8.94 -->
     <g transform="translate(217.550794 96.201983)rotate(-40.361771)scale(0.05 -0.05)">
      <use xlink:href="#DejaVuSans-56"/>
      <use x="63.623047" xlink:href="#DejaVuSans-46"/>
      <use x="95.410156" xlink:href="#DejaVuSans-57"/>
      <use x="159.033203" xlink:href="#DejaVuSans-52"/>
     </g>
    </g>
   </g>
   <g id="text_49">
    <g id="patch_50">
     <path clip-path="url(#p57f02e372c)" d="M 292.43712 130.104212 
L 301.174019 137.00393 
Q 302.351201 137.933576 303.280847 136.756394 
L 306.279925 132.958755 
Q 307.209571 131.781573 306.032389 130.851927 
L 297.295489 123.952209 
Q 296.118307 123.022563 295.188661 124.199745 
L 292.189584 127.997384 
Q 291.259937 129.174566 292.43712 130.104212 
z
" style="fill:#ffffff;stroke:#ffffff;stroke-linejoin:miter;"/>
    </g>
    <g clip-path="url(#p57f02e372c)">
     <!-- 4.63 -->
     <g transform="translate(294.011224 128.110973)rotate(-321.70109)scale(0.05 -0.05)">
      <use xlink:href="#DejaVuSans-52"/>
      <use x="63.623047" xlink:href="#DejaVuSans-46"/>
      <use x="95.410156" xlink:href="#DejaVuSans-54"/>
      <use x="159.033203" xlink:href="#DejaVuSans-51"/>
     </g>
    </g>
   </g>
   <g id="text_50">
    <g id="patch_51">
     <path clip-path="url(#p57f02e372c)" d="M 321.416261 138.937453 
L 324.738901 128.312032 
Q 325.186583 126.880396 323.754948 126.432714 
L 319.136431 124.988473 
Q 317.704795 124.540791 317.257113 125.972427 
L 313.934473 136.597848 
Q 313.486791 138.029484 314.918427 138.477166 
L 319.536943 139.921407 
Q 320.968579 140.369089 321.416261 138.937453 
z
" style="fill:#ffffff;stroke:#ffffff;stroke-linejoin:miter;"/>
    </g>
    <g clip-path="url(#p57f02e372c)">
     <!-- 2.51 -->
     <g transform="translate(318.992174 138.179425)rotate(-72.635187)scale(0.05 -0.05)">
      <use xlink:href="#DejaVuSans-50"/>
      <use x="63.623047" xlink:href="#DejaVuSans-46"/>
      <use x="95.410156" xlink:href="#DejaVuSans-53"/>
      <use x="159.033203" xlink:href="#DejaVuSans-49"/>
     </g>
    </g>
   </g>
   <g id="text_51">
    <g id="patch_52">
     <path clip-path="url(#p57f02e372c)" d="M 332.531929 135.845604 
L 341.395221 129.10902 
Q 342.589433 128.201354 341.681767 127.007142 
L 338.753599 123.154564 
Q 337.845933 121.960352 336.651721 122.868018 
L 327.788428 129.604602 
Q 326.594216 130.512268 327.501882 131.70648 
L 330.430051 135.559058 
Q 331.337717 136.75327 332.531929 135.845604 
z
" style="fill:#ffffff;stroke:#ffffff;stroke-linejoin:miter;"/>
    </g>
    <g clip-path="url(#p57f02e372c)">
     <!-- 5.16 -->
     <g transform="translate(330.995042 133.823529)rotate(-37.236806)scale(0.05 -0.05)">
      <use xlink:href="#DejaVuSans-53"/>
      <use x="63.623047" xlink:href="#DejaVuSans-46"/>
      <use x="95.410156" xlink:href="#DejaVuSans-49"/>
      <use x="159.033203" xlink:href="#DejaVuSans-54"/>
     </g>
    </g>
   </g>
   <g id="text_52">
    <g id="patch_53">
     <path clip-path="url(#p57f02e372c)" d="M 355.43829 147.520103 
L 366.571103 147.520103 
Q 368.071103 147.520103 368.071103 146.020103 
L 368.071103 141.18104 
Q 368.071103 139.68104 366.571103 139.68104 
L 355.43829 139.68104 
Q 353.93829 139.68104 353.93829 141.18104 
L 353.93829 146.020103 
Q 353.93829 147.520103 355.43829 147.520103 
z
" style="fill:#ffffff;stroke:#ffffff;stroke-linejoin:miter;"/>
    </g>
    <g clip-path="url(#p57f02e372c)">
     <!-- 10.0 -->
     <g transform="translate(355.43829 144.980259)scale(0.05 -0.05)">
      <use xlink:href="#DejaVuSans-49"/>
      <use x="63.623047" xlink:href="#DejaVuSans-48"/>
      <use x="127.246094" xlink:href="#DejaVuSans-46"/>
      <use x="159.033203" xlink:href="#DejaVuSans-48"/>
     </g>
    </g>
   </g>
   <g id="text_53">
    <g id="patch_54">
     <path clip-path="url(#p57f02e372c)" d="M 330.982816 102.030377 
L 333.326387 91.147033 
Q 333.642153 89.680645 332.175765 89.36488 
L 327.445138 88.346207 
Q 325.978751 88.030442 325.662985 89.496829 
L 323.319414 100.380174 
Q 323.003648 101.846561 324.470036 102.162327 
L 329.200663 103.180999 
Q 330.66705 103.496765 330.982816 102.030377 
z
" style="fill:#ffffff;stroke:#ffffff;stroke-linejoin:miter;"/>
    </g>
    <g clip-path="url(#p57f02e372c)">
     <!-- 5.62 -->
     <g transform="translate(328.499886 101.495714)rotate(-77.847742)scale(0.05 -0.05)">
      <use xlink:href="#DejaVuSans-53"/>
      <use x="63.623047" xlink:href="#DejaVuSans-46"/>
      <use x="95.410156" xlink:href="#DejaVuSans-54"/>
      <use x="159.033203" xlink:href="#DejaVuSans-50"/>
     </g>
    </g>
   </g>
   <g id="text_54">
    <g id="patch_55">
     <path clip-path="url(#p57f02e372c)" d="M 306.535055 46.415737 
L 314.083448 54.598725 
Q 315.100495 55.701274 316.203044 54.684228 
L 319.759916 51.403193 
Q 320.862466 50.386147 319.84542 49.283597 
L 312.297027 41.100609 
Q 311.279981 39.998059 310.177431 41.015106 
L 306.620559 44.296141 
Q 305.518009 45.313187 306.535055 46.415737 
z
" style="fill:#ffffff;stroke:#ffffff;stroke-linejoin:miter;"/>
    </g>
    <g clip-path="url(#p57f02e372c)">
     <!-- 6.63 -->
     <g transform="translate(308.401925 44.693644)rotate(-312.689973)scale(0.05 -0.05)">
      <use xlink:href="#DejaVuSans-54"/>
      <use x="63.623047" xlink:href="#DejaVuSans-46"/>
      <use x="95.410156" xlink:href="#DejaVuSans-54"/>
      <use x="159.033203" xlink:href="#DejaVuSans-51"/>
     </g>
    </g>
   </g>
   <g id="text_55">
    <g id="patch_56">
     <path clip-path="url(#p57f02e372c)" d="M 395.158003 124.589415 
L 398.924442 135.065743 
Q 399.431921 136.477291 400.843468 135.969812 
L 405.397178 134.332667 
Q 406.808726 133.825189 406.301248 132.413641 
L 402.534808 121.937313 
Q 402.02733 120.525766 400.615782 121.033244 
L 396.062072 122.67039 
Q 394.650525 123.177868 395.158003 124.589415 
z
" style="fill:#ffffff;stroke:#ffffff;stroke-linejoin:miter;"/>
    </g>
    <g clip-path="url(#p57f02e372c)">
     <!-- 3.46 -->
     <g transform="translate(397.548076 123.730138)rotate(-289.774479)scale(0.05 -0.05)">
      <use xlink:href="#DejaVuSans-51"/>
      <use x="63.623047" xlink:href="#DejaVuSans-46"/>
      <use x="95.410156" xlink:href="#DejaVuSans-52"/>
      <use x="159.033203" xlink:href="#DejaVuSans-54"/>
     </g>
    </g>
   </g>
   <g id="text_56">
    <g id="patch_57">
     <path clip-path="url(#p57f02e372c)" d="M 413.470308 134.355269 
L 417.080024 123.823912 
Q 417.566386 122.404951 416.147424 121.918589 
L 411.569794 120.349566 
Q 410.150833 119.863204 409.664471 121.282166 
L 406.054755 131.813522 
Q 405.568393 133.232484 406.987355 133.718846 
L 411.564985 135.287869 
Q 412.983946 135.77423 413.470308 134.355269 
z
" style="fill:#ffffff;stroke:#ffffff;stroke-linejoin:miter;"/>
    </g>
    <g clip-path="url(#p57f02e372c)">
     <!-- 3.59 -->
     <g transform="translate(411.067681 133.531747)rotate(-71.080395)scale(0.05 -0.05)">
      <use xlink:href="#DejaVuSans-51"/>
      <use x="63.623047" xlink:href="#DejaVuSans-46"/>
      <use x="95.410156" xlink:href="#DejaVuSans-53"/>
      <use x="159.033203" xlink:href="#DejaVuSans-57"/>
     </g>
    </g>
   </g>
   <g id="text_57">
    <g id="patch_58">
     <path clip-path="url(#p57f02e372c)" d="M 421.104569 101.743901 
L 421.328935 90.613349 
Q 421.359165 89.113654 419.85947 89.083424 
L 415.02139 88.985899 
Q 413.521695 88.955669 413.491465 90.455364 
L 413.267099 101.585916 
Q 413.236869 103.085611 414.736564 103.115841 
L 419.574644 103.213366 
Q 421.074339 103.243596 421.104569 101.743901 
z
" style="fill:#ffffff;stroke:#ffffff;stroke-linejoin:miter;"/>
    </g>
    <g clip-path="url(#p57f02e372c)">
     <!-- 3.42 -->
     <g transform="translate(418.565241 101.692714)rotate(-88.845209)scale(0.05 -0.05)">
      <use xlink:href="#DejaVuSans-51"/>
      <use x="63.623047" xlink:href="#DejaVuSans-46"/>
      <use x="95.410156" xlink:href="#DejaVuSans-52"/>
      <use x="159.033203" xlink:href="#DejaVuSans-50"/>
     </g>
    </g>
   </g>
   <g id="text_58">
    <g id="patch_59">
     <path clip-path="url(#p57f02e372c)" d="M 387.356969 57.056171 
L 395.462922 64.68723 
Q 396.555092 65.715414 397.583277 64.623244 
L 400.900244 61.099857 
Q 401.928428 60.007686 400.836258 58.979501 
L 392.730305 51.348443 
Q 391.638135 50.320258 390.60995 51.412429 
L 387.292984 54.935816 
Q 386.264799 56.027987 387.356969 57.056171 
z
" style="fill:#ffffff;stroke:#ffffff;stroke-linejoin:miter;"/>
    </g>
    <g clip-path="url(#p57f02e372c)">
     <!-- 7.05 -->
     <g transform="translate(389.097922 55.206876)rotate(-316.728484)scale(0.05 -0.05)">
      <use xlink:href="#DejaVuSans-55"/>
      <use x="63.623047" xlink:href="#DejaVuSans-46"/>
      <use x="95.410156" xlink:href="#DejaVuSans-48"/>
      <use x="159.033203" xlink:href="#DejaVuSans-53"/>
     </g>
    </g>
   </g>
   <g id="text_59">
    <g id="patch_60">
     <path clip-path="url(#p57f02e372c)" d="M 412.682792 50.024986 
L 413.057422 61.151493 
Q 413.107899 62.650644 414.607049 62.600167 
L 419.443371 62.437328 
Q 420.942522 62.386851 420.892045 60.887701 
L 420.517414 49.761193 
Q 420.466938 48.262043 418.967787 48.312519 
L 414.131466 48.475359 
Q 412.632315 48.525835 412.682792 50.024986 
z
" style="fill:#ffffff;stroke:#ffffff;stroke-linejoin:miter;"/>
    </g>
    <g clip-path="url(#p57f02e372c)">
     <!-- 5.31 -->
     <g transform="translate(415.221197 49.939518)rotate(-271.928426)scale(0.05 -0.05)">
      <use xlink:href="#DejaVuSans-53"/>
      <use x="63.623047" xlink:href="#DejaVuSans-46"/>
      <use x="95.410156" xlink:href="#DejaVuSans-51"/>
      <use x="159.033203" xlink:href="#DejaVuSans-49"/>
     </g>
    </g>
   </g>
   <g id="PathCollection_1">
    <defs>
     <path d="M 0 3.535534 
C 0.937635 3.535534 1.836992 3.163008 2.5 2.5 
C 3.163008 1.836992 3.535534 0.937635 3.535534 0 
C 3.535534 -0.937635 3.163008 -1.836992 2.5 -2.5 
C 1.836992 -3.163008 0.937635 -3.535534 0 -3.535534 
C -0.937635 -3.535534 -1.836992 -3.163008 -2.5 -2.5 
C -3.163008 -1.836992 -3.535534 -0.937635 -3.535534 0 
C -3.535534 0.937635 -3.163008 1.836992 -2.5 2.5 
C -1.836992 3.163008 -0.937635 3.535534 0 3.535534 
z
" id="maa7fc5522a" style="stroke:#ff0000;"/>
    </defs>
    <g clip-path="url(#p57f02e372c)">
     <use style="fill:#ff0000;stroke:#ff0000;" x="44.931437" xlink:href="#maa7fc5522a" y="329.890909"/>
     <use style="fill:#ff0000;stroke:#ff0000;" x="35.824503" xlink:href="#maa7fc5522a" y="294.203331"/>
     <use style="fill:#ff0000;stroke:#ff0000;" x="57.433248" xlink:href="#maa7fc5522a" y="292.655184"/>
     <use style="fill:#ff0000;stroke:#ff0000;" x="39.327768" xlink:href="#maa7fc5522a" y="260.313547"/>
     <use style="fill:#ff0000;stroke:#ff0000;" x="26.953534" xlink:href="#maa7fc5522a" y="200.988729"/>
     <use style="fill:#ff0000;stroke:#ff0000;" x="76.890351" xlink:href="#maa7fc5522a" y="215.478986"/>
     <use style="fill:#ff0000;stroke:#ff0000;" x="135.238082" xlink:href="#maa7fc5522a" y="329.890909"/>
     <use style="fill:#ff0000;stroke:#ff0000;" x="119.224127" xlink:href="#maa7fc5522a" y="295.471035"/>
     <use style="fill:#ff0000;stroke:#ff0000;" x="113.593762" xlink:href="#maa7fc5522a" y="248.063763"/>
     <use style="fill:#ff0000;stroke:#ff0000;" x="156.655337" xlink:href="#maa7fc5522a" y="259.317177"/>
     <use style="fill:#ff0000;stroke:#ff0000;" x="104.482388" xlink:href="#maa7fc5522a" y="204.127593"/>
     <use style="fill:#ff0000;stroke:#ff0000;" x="166.017048" xlink:href="#maa7fc5522a" y="220.612978"/>
     <use style="fill:#ff0000;stroke:#ff0000;" x="225.544728" xlink:href="#maa7fc5522a" y="329.890909"/>
     <use style="fill:#ff0000;stroke:#ff0000;" x="213.165199" xlink:href="#maa7fc5522a" y="295.087062"/>
     <use style="fill:#ff0000;stroke:#ff0000;" x="236.87941" xlink:href="#maa7fc5522a" y="315.009693"/>
     <use style="fill:#ff0000;stroke:#ff0000;" x="198.522476" xlink:href="#maa7fc5522a" y="255.536252"/>
     <use style="fill:#ff0000;stroke:#ff0000;" x="233.814821" xlink:href="#maa7fc5522a" y="256.931107"/>
     <use style="fill:#ff0000;stroke:#ff0000;" x="251.847375" xlink:href="#maa7fc5522a" y="266.037098"/>
     <use style="fill:#ff0000;stroke:#ff0000;" x="315.851373" xlink:href="#maa7fc5522a" y="329.890909"/>
     <use style="fill:#ff0000;stroke:#ff0000;" x="291.792943" xlink:href="#maa7fc5522a" y="315.493268"/>
     <use style="fill:#ff0000;stroke:#ff0000;" x="320.369312" xlink:href="#maa7fc5522a" y="292.892226"/>
     <use style="fill:#ff0000;stroke:#ff0000;" x="350.43579" xlink:href="#maa7fc5522a" y="309.388633"/>
     <use style="fill:#ff0000;stroke:#ff0000;" x="281.716297" xlink:href="#maa7fc5522a" y="258.419724"/>
     <use style="fill:#ff0000;stroke:#ff0000;" x="332.678446" xlink:href="#maa7fc5522a" y="266.318666"/>
     <use style="fill:#ff0000;stroke:#ff0000;" x="406.158019" xlink:href="#maa7fc5522a" y="329.890909"/>
     <use style="fill:#ff0000;stroke:#ff0000;" x="372.300875" xlink:href="#maa7fc5522a" y="294.568833"/>
     <use style="fill:#ff0000;stroke:#ff0000;" x="439.854545" xlink:href="#maa7fc5522a" y="308.95816"/>
     <use style="fill:#ff0000;stroke:#ff0000;" x="374.01053" xlink:href="#maa7fc5522a" y="255.623808"/>
     <use style="fill:#ff0000;stroke:#ff0000;" x="421.447352" xlink:href="#maa7fc5522a" y="256.924512"/>
     <use style="fill:#ff0000;stroke:#ff0000;" x="416.691395" xlink:href="#maa7fc5522a" y="213.129266"/>
     <use style="fill:#ff0000;stroke:#ff0000;" x="44.931437" xlink:href="#maa7fc5522a" y="143.600572"/>
     <use style="fill:#ff0000;stroke:#ff0000;" x="59.316478" xlink:href="#maa7fc5522a" y="128.572862"/>
     <use style="fill:#ff0000;stroke:#ff0000;" x="22.758151" xlink:href="#maa7fc5522a" y="61.060102"/>
     <use style="fill:#ff0000;stroke:#ff0000;" x="69.853047" xlink:href="#maa7fc5522a" y="62.019331"/>
     <use style="fill:#ff0000;stroke:#ff0000;" x="20.945455" xlink:href="#maa7fc5522a" y="15.709091"/>
     <use style="fill:#ff0000;stroke:#ff0000;" x="64.735959" xlink:href="#maa7fc5522a" y="32.633141"/>
     <use style="fill:#ff0000;stroke:#ff0000;" x="135.238082" xlink:href="#maa7fc5522a" y="143.600572"/>
     <use style="fill:#ff0000;stroke:#ff0000;" x="127.720651" xlink:href="#maa7fc5522a" y="116.332124"/>
     <use style="fill:#ff0000;stroke:#ff0000;" x="147.483554" xlink:href="#maa7fc5522a" y="62.487288"/>
     <use style="fill:#ff0000;stroke:#ff0000;" x="107.369551" xlink:href="#maa7fc5522a" y="18.996963"/>
     <use style="fill:#ff0000;stroke:#ff0000;" x="132.508985" xlink:href="#maa7fc5522a" y="30.198008"/>
     <use style="fill:#ff0000;stroke:#ff0000;" x="172.490529" xlink:href="#maa7fc5522a" y="26.514971"/>
     <use style="fill:#ff0000;stroke:#ff0000;" x="225.544728" xlink:href="#maa7fc5522a" y="143.600572"/>
     <use style="fill:#ff0000;stroke:#ff0000;" x="189.738211" xlink:href="#maa7fc5522a" y="118.029683"/>
     <use style="fill:#ff0000;stroke:#ff0000;" x="236.574565" xlink:href="#maa7fc5522a" y="111.303614"/>
     <use style="fill:#ff0000;stroke:#ff0000;" x="192.829225" xlink:href="#maa7fc5522a" y="61.124321"/>
     <use style="fill:#ff0000;stroke:#ff0000;" x="220.795086" xlink:href="#maa7fc5522a" y="62.019852"/>
     <use style="fill:#ff0000;stroke:#ff0000;" x="252.05925" xlink:href="#maa7fc5522a" y="65.061982"/>
     <use style="fill:#ff0000;stroke:#ff0000;" x="315.851373" xlink:href="#maa7fc5522a" y="143.600572"/>
     <use style="fill:#ff0000;stroke:#ff0000;" x="282.618135" xlink:href="#maa7fc5522a" y="117.355567"/>
     <use style="fill:#ff0000;stroke:#ff0000;" x="322.822001" xlink:href="#maa7fc5522a" y="121.309308"/>
     <use style="fill:#ff0000;stroke:#ff0000;" x="353.332276" xlink:href="#maa7fc5522a" y="115.11305"/>
     <use style="fill:#ff0000;stroke:#ff0000;" x="333.823801" xlink:href="#maa7fc5522a" y="70.217898"/>
     <use style="fill:#ff0000;stroke:#ff0000;" x="292.556675" xlink:href="#maa7fc5522a" y="25.481436"/>
     <use style="fill:#ff0000;stroke:#ff0000;" x="406.158019" xlink:href="#maa7fc5522a" y="143.600572"/>
     <use style="fill:#ff0000;stroke:#ff0000;" x="395.301231" xlink:href="#maa7fc5522a" y="113.402485"/>
     <use style="fill:#ff0000;stroke:#ff0000;" x="416.97676" xlink:href="#maa7fc5522a" y="112.036863"/>
     <use style="fill:#ff0000;stroke:#ff0000;" x="417.619274" xlink:href="#maa7fc5522a" y="80.162402"/>
     <use style="fill:#ff0000;stroke:#ff0000;" x="370.573953" xlink:href="#maa7fc5522a" y="35.873271"/>
     <use style="fill:#ff0000;stroke:#ff0000;" x="415.955563" xlink:href="#maa7fc5522a" y="30.750285"/>
    </g>
   </g>
   <g id="text_60">
    <g clip-path="url(#p57f02e372c)">
     <!-- 0 -->
     <g transform="translate(43.340812 331.270597)scale(0.05 -0.05)">
      <use xlink:href="#DejaVuSans-48"/>
     </g>
    </g>
   </g>
   <g id="text_61">
    <g clip-path="url(#p57f02e372c)">
     <!-- 1 -->
     <g transform="translate(34.233878 295.583018)scale(0.05 -0.05)">
      <use xlink:href="#DejaVuSans-49"/>
     </g>
    </g>
   </g>
   <g id="text_62">
    <g clip-path="url(#p57f02e372c)">
     <!-- 2 -->
     <g transform="translate(55.842623 294.034872)scale(0.05 -0.05)">
      <use xlink:href="#DejaVuSans-50"/>
     </g>
    </g>
   </g>
   <g id="text_63">
    <g clip-path="url(#p57f02e372c)">
     <!-- 3 -->
     <g transform="translate(37.737143 261.693234)scale(0.05 -0.05)">
      <use xlink:href="#DejaVuSans-51"/>
     </g>
    </g>
   </g>
   <g id="text_64">
    <g clip-path="url(#p57f02e372c)">
     <!-- 4 -->
     <g transform="translate(25.362909 202.368416)scale(0.05 -0.05)">
      <use xlink:href="#DejaVuSans-52"/>
     </g>
    </g>
   </g>
   <g id="text_65">
    <g clip-path="url(#p57f02e372c)">
     <!-- 5 -->
     <g transform="translate(75.299726 216.858674)scale(0.05 -0.05)">
      <use xlink:href="#DejaVuSans-53"/>
     </g>
    </g>
   </g>
   <g id="text_66">
    <g clip-path="url(#p57f02e372c)">
     <!-- 6 -->
     <g transform="translate(133.647457 331.270597)scale(0.05 -0.05)">
      <use xlink:href="#DejaVuSans-54"/>
     </g>
    </g>
   </g>
   <g id="text_67">
    <g clip-path="url(#p57f02e372c)">
     <!-- 7 -->
     <g transform="translate(117.633502 296.850722)scale(0.05 -0.05)">
      <use xlink:href="#DejaVuSans-55"/>
     </g>
    </g>
   </g>
   <g id="text_68">
    <g clip-path="url(#p57f02e372c)">
     <!-- 8 -->
     <g transform="translate(112.003137 249.44345)scale(0.05 -0.05)">
      <use xlink:href="#DejaVuSans-56"/>
     </g>
    </g>
   </g>
   <g id="text_69">
    <g clip-path="url(#p57f02e372c)">
     <!-- 9 -->
     <g transform="translate(155.064712 260.696864)scale(0.05 -0.05)">
      <use xlink:href="#DejaVuSans-57"/>
     </g>
    </g>
   </g>
   <g id="text_70">
    <g clip-path="url(#p57f02e372c)">
     <!-- 10 -->
     <g transform="translate(101.301138 205.507281)scale(0.05 -0.05)">
      <use xlink:href="#DejaVuSans-49"/>
      <use x="63.623047" xlink:href="#DejaVuSans-48"/>
     </g>
    </g>
   </g>
   <g id="text_71">
    <g clip-path="url(#p57f02e372c)">
     <!-- 11 -->
     <g transform="translate(162.835798 221.992666)scale(0.05 -0.05)">
      <use xlink:href="#DejaVuSans-49"/>
      <use x="63.623047" xlink:href="#DejaVuSans-49"/>
     </g>
    </g>
   </g>
   <g id="text_72">
    <g clip-path="url(#p57f02e372c)">
     <!-- 12 -->
     <g transform="translate(222.363478 331.270597)scale(0.05 -0.05)">
      <use xlink:href="#DejaVuSans-49"/>
      <use x="63.623047" xlink:href="#DejaVuSans-50"/>
     </g>
    </g>
   </g>
   <g id="text_73">
    <g clip-path="url(#p57f02e372c)">
     <!-- 13 -->
     <g transform="translate(209.983949 296.466749)scale(0.05 -0.05)">
      <use xlink:href="#DejaVuSans-49"/>
      <use x="63.623047" xlink:href="#DejaVuSans-51"/>
     </g>
    </g>
   </g>
   <g id="text_74">
    <g clip-path="url(#p57f02e372c)">
     <!-- 14 -->
     <g transform="translate(233.69816 316.38938)scale(0.05 -0.05)">
      <use xlink:href="#DejaVuSans-49"/>
      <use x="63.623047" xlink:href="#DejaVuSans-52"/>
     </g>
    </g>
   </g>
   <g id="text_75">
    <g clip-path="url(#p57f02e372c)">
     <!-- 15 -->
     <g transform="translate(195.341226 256.91594)scale(0.05 -0.05)">
      <use xlink:href="#DejaVuSans-49"/>
      <use x="63.623047" xlink:href="#DejaVuSans-53"/>
     </g>
    </g>
   </g>
   <g id="text_76">
    <g clip-path="url(#p57f02e372c)">
     <!-- 16 -->
     <g transform="translate(230.633571 258.310794)scale(0.05 -0.05)">
      <use xlink:href="#DejaVuSans-49"/>
      <use x="63.623047" xlink:href="#DejaVuSans-54"/>
     </g>
    </g>
   </g>
   <g id="text_77">
    <g clip-path="url(#p57f02e372c)">
     <!-- 17 -->
     <g transform="translate(248.666125 267.416786)scale(0.05 -0.05)">
      <use xlink:href="#DejaVuSans-49"/>
      <use x="63.623047" xlink:href="#DejaVuSans-55"/>
     </g>
    </g>
   </g>
   <g id="text_78">
    <g clip-path="url(#p57f02e372c)">
     <!-- 18 -->
     <g transform="translate(312.670123 331.270597)scale(0.05 -0.05)">
      <use xlink:href="#DejaVuSans-49"/>
      <use x="63.623047" xlink:href="#DejaVuSans-56"/>
     </g>
    </g>
   </g>
   <g id="text_79">
    <g clip-path="url(#p57f02e372c)">
     <!-- 19 -->
     <g transform="translate(288.611693 316.872955)scale(0.05 -0.05)">
      <use xlink:href="#DejaVuSans-49"/>
      <use x="63.623047" xlink:href="#DejaVuSans-57"/>
     </g>
    </g>
   </g>
   <g id="text_80">
    <g clip-path="url(#p57f02e372c)">
     <!-- 20 -->
     <g transform="translate(317.188062 294.271913)scale(0.05 -0.05)">
      <use xlink:href="#DejaVuSans-50"/>
      <use x="63.623047" xlink:href="#DejaVuSans-48"/>
     </g>
    </g>
   </g>
   <g id="text_81">
    <g clip-path="url(#p57f02e372c)">
     <!-- 21 -->
     <g transform="translate(347.25454 310.768321)scale(0.05 -0.05)">
      <use xlink:href="#DejaVuSans-50"/>
      <use x="63.623047" xlink:href="#DejaVuSans-49"/>
     </g>
    </g>
   </g>
   <g id="text_82">
    <g clip-path="url(#p57f02e372c)">
     <!-- 22 -->
     <g transform="translate(278.535047 259.799411)scale(0.05 -0.05)">
      <use xlink:href="#DejaVuSans-50"/>
      <use x="63.623047" xlink:href="#DejaVuSans-50"/>
     </g>
    </g>
   </g>
   <g id="text_83">
    <g clip-path="url(#p57f02e372c)">
     <!-- 23 -->
     <g transform="translate(329.497196 267.698354)scale(0.05 -0.05)">
      <use xlink:href="#DejaVuSans-50"/>
      <use x="63.623047" xlink:href="#DejaVuSans-51"/>
     </g>
    </g>
   </g>
   <g id="text_84">
    <g clip-path="url(#p57f02e372c)">
     <!-- 24 -->
     <g transform="translate(402.976769 331.270597)scale(0.05 -0.05)">
      <use xlink:href="#DejaVuSans-50"/>
      <use x="63.623047" xlink:href="#DejaVuSans-52"/>
     </g>
    </g>
   </g>
   <g id="text_85">
    <g clip-path="url(#p57f02e372c)">
     <!-- 25 -->
     <g transform="translate(369.119625 295.94852)scale(0.05 -0.05)">
      <use xlink:href="#DejaVuSans-50"/>
      <use x="63.623047" xlink:href="#DejaVuSans-53"/>
     </g>
    </g>
   </g>
   <g id="text_86">
    <g clip-path="url(#p57f02e372c)">
     <!-- 26 -->
     <g transform="translate(436.673295 310.337847)scale(0.05 -0.05)">
      <use xlink:href="#DejaVuSans-50"/>
      <use x="63.623047" xlink:href="#DejaVuSans-54"/>
     </g>
    </g>
   </g>
   <g id="text_87">
    <g clip-path="url(#p57f02e372c)">
     <!-- 27 -->
     <g transform="translate(370.82928 257.003496)scale(0.05 -0.05)">
      <use xlink:href="#DejaVuSans-50"/>
      <use x="63.623047" xlink:href="#DejaVuSans-55"/>
     </g>
    </g>
   </g>
   <g id="text_88">
    <g clip-path="url(#p57f02e372c)">
     <!-- 28 -->
     <g transform="translate(418.266102 258.304199)scale(0.05 -0.05)">
      <use xlink:href="#DejaVuSans-50"/>
      <use x="63.623047" xlink:href="#DejaVuSans-56"/>
     </g>
    </g>
   </g>
   <g id="text_89">
    <g clip-path="url(#p57f02e372c)">
     <!-- 29 -->
     <g transform="translate(413.510145 214.508953)scale(0.05 -0.05)">
      <use xlink:href="#DejaVuSans-50"/>
      <use x="63.623047" xlink:href="#DejaVuSans-57"/>
     </g>
    </g>
   </g>
   <g id="text_90">
    <g clip-path="url(#p57f02e372c)">
     <!-- 30 -->
     <g transform="translate(41.750187 144.980259)scale(0.05 -0.05)">
      <use xlink:href="#DejaVuSans-51"/>
      <use x="63.623047" xlink:href="#DejaVuSans-48"/>
     </g>
    </g>
   </g>
   <g id="text_91">
    <g clip-path="url(#p57f02e372c)">
     <!-- 31 -->
     <g transform="translate(56.135228 129.95255)scale(0.05 -0.05)">
      <use xlink:href="#DejaVuSans-51"/>
      <use x="63.623047" xlink:href="#DejaVuSans-49"/>
     </g>
    </g>
   </g>
   <g id="text_92">
    <g clip-path="url(#p57f02e372c)">
     <!-- 32 -->
     <g transform="translate(19.576901 62.43979)scale(0.05 -0.05)">
      <use xlink:href="#DejaVuSans-51"/>
      <use x="63.623047" xlink:href="#DejaVuSans-50"/>
     </g>
    </g>
   </g>
   <g id="text_93">
    <g clip-path="url(#p57f02e372c)">
     <!-- 33 -->
     <g transform="translate(66.671797 63.399018)scale(0.05 -0.05)">
      <use xlink:href="#DejaVuSans-51"/>
      <use x="63.623047" xlink:href="#DejaVuSans-51"/>
     </g>
    </g>
   </g>
   <g id="text_94">
    <g clip-path="url(#p57f02e372c)">
     <!-- 34 -->
     <g transform="translate(17.764205 17.088778)scale(0.05 -0.05)">
      <use xlink:href="#DejaVuSans-51"/>
      <use x="63.623047" xlink:href="#DejaVuSans-52"/>
     </g>
    </g>
   </g>
   <g id="text_95">
    <g clip-path="url(#p57f02e372c)">
     <!-- 35 -->
     <g transform="translate(61.554709 34.012829)scale(0.05 -0.05)">
      <use xlink:href="#DejaVuSans-51"/>
      <use x="63.623047" xlink:href="#DejaVuSans-53"/>
     </g>
    </g>
   </g>
   <g id="text_96">
    <g clip-path="url(#p57f02e372c)">
     <!-- 36 -->
     <g transform="translate(132.056832 144.980259)scale(0.05 -0.05)">
      <use xlink:href="#DejaVuSans-51"/>
      <use x="63.623047" xlink:href="#DejaVuSans-54"/>
     </g>
    </g>
   </g>
   <g id="text_97">
    <g clip-path="url(#p57f02e372c)">
     <!-- 37 -->
     <g transform="translate(124.539401 117.711812)scale(0.05 -0.05)">
      <use xlink:href="#DejaVuSans-51"/>
      <use x="63.623047" xlink:href="#DejaVuSans-55"/>
     </g>
    </g>
   </g>
   <g id="text_98">
    <g clip-path="url(#p57f02e372c)">
     <!-- 38 -->
     <g transform="translate(144.302304 63.866976)scale(0.05 -0.05)">
      <use xlink:href="#DejaVuSans-51"/>
      <use x="63.623047" xlink:href="#DejaVuSans-56"/>
     </g>
    </g>
   </g>
   <g id="text_99">
    <g clip-path="url(#p57f02e372c)">
     <!-- 39 -->
     <g transform="translate(104.188301 20.37665)scale(0.05 -0.05)">
      <use xlink:href="#DejaVuSans-51"/>
      <use x="63.623047" xlink:href="#DejaVuSans-57"/>
     </g>
    </g>
   </g>
   <g id="text_100">
    <g clip-path="url(#p57f02e372c)">
     <!-- 40 -->
     <g transform="translate(129.327735 31.577695)scale(0.05 -0.05)">
      <use xlink:href="#DejaVuSans-52"/>
      <use x="63.623047" xlink:href="#DejaVuSans-48"/>
     </g>
    </g>
   </g>
   <g id="text_101">
    <g clip-path="url(#p57f02e372c)">
     <!-- 41 -->
     <g transform="translate(169.309279 27.894658)scale(0.05 -0.05)">
      <use xlink:href="#DejaVuSans-52"/>
      <use x="63.623047" xlink:href="#DejaVuSans-49"/>
     </g>
    </g>
   </g>
   <g id="text_102">
    <g clip-path="url(#p57f02e372c)">
     <!-- 42 -->
     <g transform="translate(222.363478 144.980259)scale(0.05 -0.05)">
      <use xlink:href="#DejaVuSans-52"/>
      <use x="63.623047" xlink:href="#DejaVuSans-50"/>
     </g>
    </g>
   </g>
   <g id="text_103">
    <g clip-path="url(#p57f02e372c)">
     <!-- 43 -->
     <g transform="translate(186.556961 119.40937)scale(0.05 -0.05)">
      <use xlink:href="#DejaVuSans-52"/>
      <use x="63.623047" xlink:href="#DejaVuSans-51"/>
     </g>
    </g>
   </g>
   <g id="text_104">
    <g clip-path="url(#p57f02e372c)">
     <!-- 44 -->
     <g transform="translate(233.393315 112.683302)scale(0.05 -0.05)">
      <use xlink:href="#DejaVuSans-52"/>
      <use x="63.623047" xlink:href="#DejaVuSans-52"/>
     </g>
    </g>
   </g>
   <g id="text_105">
    <g clip-path="url(#p57f02e372c)">
     <!-- 45 -->
     <g transform="translate(189.647975 62.504009)scale(0.05 -0.05)">
      <use xlink:href="#DejaVuSans-52"/>
      <use x="63.623047" xlink:href="#DejaVuSans-53"/>
     </g>
    </g>
   </g>
   <g id="text_106">
    <g clip-path="url(#p57f02e372c)">
     <!-- 46 -->
     <g transform="translate(217.613836 63.39954)scale(0.05 -0.05)">
      <use xlink:href="#DejaVuSans-52"/>
      <use x="63.623047" xlink:href="#DejaVuSans-54"/>
     </g>
    </g>
   </g>
   <g id="text_107">
    <g clip-path="url(#p57f02e372c)">
     <!-- 47 -->
     <g transform="translate(248.878 66.44167)scale(0.05 -0.05)">
      <use xlink:href="#DejaVuSans-52"/>
      <use x="63.623047" xlink:href="#DejaVuSans-55"/>
     </g>
    </g>
   </g>
   <g id="text_108">
    <g clip-path="url(#p57f02e372c)">
     <!-- 48 -->
     <g transform="translate(312.670123 144.980259)scale(0.05 -0.05)">
      <use xlink:href="#DejaVuSans-52"/>
      <use x="63.623047" xlink:href="#DejaVuSans-56"/>
     </g>
    </g>
   </g>
   <g id="text_109">
    <g clip-path="url(#p57f02e372c)">
     <!-- 49 -->
     <g transform="translate(279.436885 118.735255)scale(0.05 -0.05)">
      <use xlink:href="#DejaVuSans-52"/>
      <use x="63.623047" xlink:href="#DejaVuSans-57"/>
     </g>
    </g>
   </g>
   <g id="text_110">
    <g clip-path="url(#p57f02e372c)">
     <!-- 50 -->
     <g transform="translate(319.640751 122.688996)scale(0.05 -0.05)">
      <use xlink:href="#DejaVuSans-53"/>
      <use x="63.623047" xlink:href="#DejaVuSans-48"/>
     </g>
    </g>
   </g>
   <g id="text_111">
    <g clip-path="url(#p57f02e372c)">
     <!-- 51 -->
     <g transform="translate(350.151026 116.492738)scale(0.05 -0.05)">
      <use xlink:href="#DejaVuSans-53"/>
      <use x="63.623047" xlink:href="#DejaVuSans-49"/>
     </g>
    </g>
   </g>
   <g id="text_112">
    <g clip-path="url(#p57f02e372c)">
     <!-- 52 -->
     <g transform="translate(330.642551 71.597586)scale(0.05 -0.05)">
      <use xlink:href="#DejaVuSans-53"/>
      <use x="63.623047" xlink:href="#DejaVuSans-50"/>
     </g>
    </g>
   </g>
   <g id="text_113">
    <g clip-path="url(#p57f02e372c)">
     <!-- 53 -->
     <g transform="translate(289.375425 26.861123)scale(0.05 -0.05)">
      <use xlink:href="#DejaVuSans-53"/>
      <use x="63.623047" xlink:href="#DejaVuSans-51"/>
     </g>
    </g>
   </g>
   <g id="text_114">
    <g clip-path="url(#p57f02e372c)">
     <!-- 54 -->
     <g transform="translate(402.976769 144.980259)scale(0.05 -0.05)">
      <use xlink:href="#DejaVuSans-53"/>
      <use x="63.623047" xlink:href="#DejaVuSans-52"/>
     </g>
    </g>
   </g>
   <g id="text_115">
    <g clip-path="url(#p57f02e372c)">
     <!-- 55 -->
     <g transform="translate(392.119981 114.782172)scale(0.05 -0.05)">
      <use xlink:href="#DejaVuSans-53"/>
      <use x="63.623047" xlink:href="#DejaVuSans-53"/>
     </g>
    </g>
   </g>
   <g id="text_116">
    <g clip-path="url(#p57f02e372c)">
     <!-- 56 -->
     <g transform="translate(413.79551 113.41655)scale(0.05 -0.05)">
      <use xlink:href="#DejaVuSans-53"/>
      <use x="63.623047" xlink:href="#DejaVuSans-54"/>
     </g>
    </g>
   </g>
   <g id="text_117">
    <g clip-path="url(#p57f02e372c)">
     <!-- 57 -->
     <g transform="translate(414.438024 81.542089)scale(0.05 -0.05)">
      <use xlink:href="#DejaVuSans-53"/>
      <use x="63.623047" xlink:href="#DejaVuSans-55"/>
     </g>
    </g>
   </g>
   <g id="text_118">
    <g clip-path="url(#p57f02e372c)">
     <!-- 58 -->
     <g transform="translate(367.392703 37.252958)scale(0.05 -0.05)">
      <use xlink:href="#DejaVuSans-53"/>
      <use x="63.623047" xlink:href="#DejaVuSans-56"/>
     </g>
    </g>
   </g>
   <g id="text_119">
    <g clip-path="url(#p57f02e372c)">
     <!-- 59 -->
     <g transform="translate(412.774313 32.129972)scale(0.05 -0.05)">
      <use xlink:href="#DejaVuSans-53"/>
      <use x="63.623047" xlink:href="#DejaVuSans-57"/>
     </g>
    </g>
   </g>
  </g>
 </g>
 <defs>
  <clipPath id="p57f02e372c">
   <rect height="345.6" width="460.8" x="0" y="0"/>
  </clipPath>
 </defs>
</svg>
